<svg xmlns="http://www.w3.org/2000/svg" width="447.538" height="364.731" viewBox="0 0 447.538 364.731">
  <g id="Group_233" data-name="Group 233" transform="translate(-45.812 -118.91)">
    <g id="Group_232" data-name="Group 232" transform="translate(45.812 118.91)">
      <ellipse id="Ellipse_52" data-name="Ellipse 52" cx="94.379" cy="23.546" rx="94.379" ry="23.546" transform="translate(19.051 286.894)" fill="#d6d6d6" opacity="0.2"/>
      <ellipse id="Ellipse_53" data-name="Ellipse 53" cx="108.793" cy="28.206" rx="108.793" ry="28.206" transform="translate(213.931 277.574)" fill="#d6d6d6" opacity="0.2"/>
      <ellipse id="Ellipse_55" data-name="Ellipse 55" cx="76.406" cy="23.552" rx="76.406" ry="23.552" transform="translate(140.107 315.653)" fill="#d6d6d6" opacity="0.2"/>
      <g id="Group_222" data-name="Group 222" transform="translate(100.707)">
        <g id="Group_221" data-name="Group 221" transform="translate(75.004 68.072)">
          <path id="Path_522" data-name="Path 522" d="M314.215,363.9l24.339-183.628L204.217,216.453,231.36,392.134Z" transform="translate(-204.217 -180.277)" fill="#d9a72a"/>
        </g>
        <path id="Path_523" data-name="Path 523" d="M345.939,183.091l-130.8,42.085L136.6,174.894,258.762,154.55l16.528,5.413,22.152,7.255Z" transform="translate(-136.6 -115.016)" fill="#f0c04a"/>
        <path id="Path_524" data-name="Path 524" d="M288.457,371.87c4.582-58.946,2.942-122.509.559-181.755l1.672.419A169.071,169.071,0,0,0,249.6,167.124l-30.589,12.092c14.2,5.54,31.381,14.243,44.47,24.249l-1.672-.419c2.383,59.244,4.023,122.809-.559,181.755Z" transform="translate(-127.596 -113.642)" fill="#8fb73a"/>
        <path id="Path_525" data-name="Path 525" d="M289.371,166.685c-9.151,1.941-18.491,3.383-27.576,5.2-6.3,1.265-13.189,1.93-19.312,3.882-10.549,3.35-21.331-.111-32.013-.876a186.207,186.207,0,0,1,56.75-15.463Z" transform="translate(-128.529 -114.483)" fill="#8fb73a"/>
        <path id="Path_526" data-name="Path 526" d="M136.6,172.886l37.313,183.336,64.831,36.72L211.6,217.26Z" transform="translate(-136.6 -113.013)" fill="#ba8d1e"/>
        <path id="Path_527" data-name="Path 527" d="M146.139,178.085c5.654,1.618,10.441,6.882,15.744,10.065,7.828,4.7,16.16,8,24.14,12.1,6.217,3.2,12.406,6.447,18.582,9.82,2.836,1.55,5.732,2.5,7.889,5.411,38.283-9.133,76.263-22.638,114.736-29.566.49-.089.508.993.109,1.221-18.876,10.8-38.934,15.525-58.733,20.872-18.1,4.886-36.269,9.313-54.318,14.6,1.332,9.036,2.03,18.422,3.286,27.468q2.418,17.416,4.869,34.82c3.082,22.031,6.223,44.206,8.12,66.54.09,1.059-1,1.2-1.191.244-4.527-22.742-7.718-46.2-11.007-69.433-1.539-10.862-3.1-21.716-4.613-32.585-1.175-8.431-2.723-17.586-2.847-26.421-1.389-.494-2.17-2.76-2-4.656-9.672-6.617-20.374-11.079-30.287-16.526-5.964-3.278-11.674-7.377-17.594-10.81-5.326-3.087-10.918-5.187-15.93-9.4C143.675,180.668,144.685,177.669,146.139,178.085Z" transform="translate(-135.747 -112.449)" fill="#ffd878"/>
        <path id="Path_528" data-name="Path 528" d="M234.92,176.033c-11.436,2.537-20.752,9.088-32.188,11.624a122.435,122.435,0,0,0-28.966,10.39c.367-.058-8.461-3.8-8.113-3.941-6.318-2.532-5.722-5.343-12.04-7.876,17.97-4.469,37.522-10.926,55.821-13.847,4.537-.724,9.145-1.451,13.707-.906s9.155,2.536,11.827,6.274l-1.439-1.054" transform="translate(-134.741 -113.187)" fill="#6a872a"/>
        <path id="Path_529" data-name="Path 529" d="M173.64,300.678c4.091,20.563,7.08,39.715,11.294,60.22l21.324,14.313c-1.625-1.233-3.163-17.338-3.716-20.37q-2.091-11.458-4.181-22.915-4.181-22.915-8.362-45.831-4.065-22.279-8.129-44.558-2.091-11.457-4.181-22.916c-.955-5.231-1.456-15.364-3.757-19.551-4.511-8.176-14.226-7.522-20.387-11.078,2.267,9.242,2.5,16.9,3.849,26.321,1.332,9.282,3.189,18.363,4.784,27.542C165.628,261.692,169.774,281.25,173.64,300.678Z" transform="translate(-134.748 -111.362)" fill="#6a872a"/>
        <path id="Path_530" data-name="Path 530" d="M257.269,131.63l-4.08,26.6" transform="translate(-123.862 -117.52)" fill="#e6369f"/>
        <path id="Path_531" data-name="Path 531" d="M237.484,123.06a33.08,33.08,0,0,0-4.118,9.545,260.872,260.872,0,0,0-9.964,49.832c2.063,1.247,4.874.393,6.578-1.311s2.565-4.055,3.374-6.325q8.576-24.053,17.154-48.106C253.842,117.343,241.89,116.781,237.484,123.06Z" transform="translate(-127.116 -118.91)" fill="#6a872a"/>
        <path id="Path_532" data-name="Path 532" d="M266.558,139.6c1.174-5.469.254-14.532-5.3-17.76-2.317-1.348-6.6-1.8-9.277-2.366-1.794-.377-10.123.416-10.974-.354,9.673,8.745,3.527,24.054.2,34.354s-9.266,19.1-13.386,28.928c6.733,2.781,19.706-10.433,23.769-14.725A59.278,59.278,0,0,0,266.558,139.6Z" transform="translate(-126.634 -118.887)" fill="#8fb73a"/>
        <path id="Path_533" data-name="Path 533" d="M189.785,140.087c-1.426-5.159,3.768-6.859,7.926-6.073,6.975,1.319,13.459,6.059,18.188,11.152,5.829,6.275,10.007,13.912,13.383,21.782,1.86,4.337,3.451,9.514,1.053,13.578-6.947-2.984-11.434-9.7-15.408-16.136s-8.171-13.256-14.9-16.709c-1.958-1-4.074-1.687-5.986-2.776A8.534,8.534,0,0,1,189.785,140.087Z" transform="translate(-130.816 -117.279)" fill="#6a872a"/>
        <path id="Path_534" data-name="Path 534" d="M180.459,149.194c9.049,15.079,31.964,35.248,50.989,30.264-4.016-6.052-12.119-9.126-17.412-14.055-6.622-6.165-14.519-13.7-16.619-22.866-.719-3.14-.206-6.73,2.038-9.042a36.372,36.372,0,0,0-14.434,2.5c-2.87,1.129-5.878,2.981-6.55,5.99C177.914,144.479,179.144,147,180.459,149.194Z" transform="translate(-132.04 -117.318)" fill="#8fb73a"/>
        <path id="Path_535" data-name="Path 535" d="M207.562,171.525c3.466.394,6.849,1.459,10.271,2.131,3.79.745,7.612,1.245,11.433,1.794.837.121.643,1.536-.2,1.482-7.086-.458-15.3-1.309-21.833-4.184A.66.66,0,0,1,207.562,171.525Z" transform="translate(-128.918 -113.161)" fill="#6a872a"/>
        <path id="Path_536" data-name="Path 536" d="M245.633,237.334l-5.6-1.879-5.078,3.01.058-5.9-4.432-3.9,5.632-1.769,2.339-5.42,3.423,4.81,5.877.549-3.516,4.741Z" transform="translate(-126.332 -107.704)" fill="#ffd878"/>
        <path id="Path_537" data-name="Path 537" d="M262.291,282.427l-5.6-1.879-5.078,3.01.058-5.9-4.432-3.9,5.632-1.769,2.339-5.42,3.423,4.809,5.877.549L261,276.668Z" transform="translate(-124.512 -102.777)" fill="#ffd878"/>
        <path id="Path_538" data-name="Path 538" d="M257,348.285l-5.6-1.879-5.078,3.01.058-5.9-4.432-3.9,5.632-1.769,2.339-5.42,3.423,4.81,5.877.549-3.516,4.741Z" transform="translate(-125.089 -95.582)" fill="#ffd878"/>
        <path id="Path_539" data-name="Path 539" d="M239.372,301.678l-5.6-1.879-5.078,3.01.058-5.9-4.432-3.9,5.632-1.769,2.339-5.42,3.423,4.81,5.877.549-3.516,4.741Z" transform="translate(-127.016 -100.674)" fill="#ffd878"/>
        <path id="Path_540" data-name="Path 540" d="M198.256,232.217l-4.153-2.593-4.31,2.322.723-5.844L187.5,221.66l4.6-1.019,2.449-5.068,2.12,5.214L201.2,222.1l-3.29,4.241Z" transform="translate(-131.039 -108.349)" fill="#d9a72a"/>
        <path id="Path_541" data-name="Path 541" d="M179.4,327.462l-4.153-2.592-4.31,2.322.723-5.844-3.012-4.443,4.6-1.019,2.449-5.068,2.12,5.214,4.526,1.311-3.29,4.241Z" transform="translate(-133.098 -97.943)" fill="#d9a72a"/>
        <path id="Path_542" data-name="Path 542" d="M202.474,291.982l-4.153-2.593-4.31,2.322.723-5.844-3.012-4.443,4.6-1.019,2.449-5.068,2.12,5.214,4.526,1.311-3.29,4.241Z" transform="translate(-130.578 -101.819)" fill="#d9a72a"/>
        <path id="Path_543" data-name="Path 543" d="M169.047,267.565l-4.153-2.593-4.31,2.322.723-5.844-3.012-4.443,4.6-1.019,2.449-5.068,2.12,5.214,4.526,1.311-3.29,4.241Z" transform="translate(-134.23 -104.487)" fill="#d9a72a"/>
        <path id="Path_544" data-name="Path 544" d="M202.173,259.378l-1.829-1.142-1.9,1.023.319-2.574-1.327-1.957,2.026-.449,1.079-2.232.934,2.3,1.994.577-1.449,1.868Z" transform="translate(-129.953 -104.364)" fill="#d9a72a"/>
        <path id="Path_545" data-name="Path 545" d="M194.108,267.177l-1.829-1.142-1.9,1.023.319-2.574-1.327-1.957,2.027-.449,1.079-2.232.934,2.3,1.994.578-1.449,1.868Z" transform="translate(-130.835 -103.512)" fill="#d9a72a"/>
        <path id="Path_546" data-name="Path 546" d="M210.495,327.981l-1.829-1.142-1.9,1.023.319-2.574-1.327-1.957,2.027-.449,1.079-2.232.934,2.3,1.994.578-1.449,1.868Z" transform="translate(-129.044 -96.869)" fill="#d9a72a"/>
        <path id="Path_547" data-name="Path 547" d="M210.495,305.957l-1.829-1.142-1.9,1.023.319-2.574-1.327-1.957,2.027-.449,1.079-2.233.934,2.3,1.994.578-1.449,1.868Z" transform="translate(-129.044 -99.275)" fill="#d9a72a"/>
        <path id="Path_548" data-name="Path 548" d="M168.323,287.673l-1.83-1.142-1.9,1.023.319-2.574-1.327-1.957,2.027-.449,1.079-2.232.934,2.3,1.994.577-1.449,1.868Z" transform="translate(-133.652 -101.272)" fill="#d9a72a"/>
        <path id="Path_549" data-name="Path 549" d="M154.222,209.224l-1.83-1.142-1.9,1.023.319-2.574-1.327-1.957,2.026-.449,1.079-2.232.934,2.3,1.994.578-1.449,1.868Z" transform="translate(-135.192 -109.843)" fill="#d9a72a"/>
        <path id="Path_550" data-name="Path 550" d="M187.381,240.819l-1.829-1.142-1.9,1.023.319-2.574-1.327-1.957,2.027-.449,1.079-2.232.934,2.3,1.994.578-1.449,1.868Z" transform="translate(-131.569 -106.392)" fill="#d9a72a"/>
        <path id="Path_551" data-name="Path 551" d="M155.631,233.161l-1.829-1.142-1.9,1.023.319-2.574-1.327-1.957,2.027-.449L154,225.828l.934,2.3,1.994.578-1.449,1.868Z" transform="translate(-135.038 -107.228)" fill="#d9a72a"/>
        <path id="Path_552" data-name="Path 552" d="M226.231,201.32l-5.623.218-4.48,3.4-.723-4.03-4.772-1.467,5.176-2.709,1.531-4.312,3.922,2.356,5.718-1.2-2.752,4.165Z" transform="translate(-128.512 -110.878)" fill="#ffd878"/>
        <path id="Path_553" data-name="Path 553" d="M281.99,174.792l-3.763.146-3,2.279-.484-2.7-3.193-.982,3.464-1.813,1.025-2.885,2.625,1.577,3.827-.8L280.65,172.4Z" transform="translate(-121.856 -113.455)" fill="#ffd878"/>
        <path id="Path_554" data-name="Path 554" d="M175.4,176.138l-3.763.146-3,2.279-.484-2.7-3.193-.982,3.464-1.813,1.025-2.885,2.625,1.577,3.827-.8-1.842,2.787Z" transform="translate(-133.501 -113.308)" fill="#ffd878"/>
        <path id="Path_555" data-name="Path 555" d="M297.962,181.14l-2.244.087-1.788,1.359-.289-1.609-1.9-.586,2.066-1.081.611-1.721,1.565.94,2.282-.478-1.1,1.662Z" transform="translate(-119.651 -112.499)" fill="#ffd878"/>
        <path id="Path_556" data-name="Path 556" d="M221.843,184.648l-2.244.087-1.788,1.359-.289-1.609-1.9-.586,2.066-1.081.611-1.721,1.566.94,2.282-.478-1.1,1.662Z" transform="translate(-127.967 -112.115)" fill="#ffd878"/>
        <path id="Path_557" data-name="Path 557" d="M298.858,237.334l-5.6-1.879-5.078,3.01.058-5.9-4.432-3.9,5.632-1.769,2.339-5.42,3.423,4.81,5.877.549-3.516,4.741Z" transform="translate(-120.517 -107.704)" fill="#ffd878"/>
        <path id="Path_558" data-name="Path 558" d="M308.813,282.427l-5.6-1.879-5.078,3.01.058-5.9-4.432-3.9,5.632-1.769,2.339-5.42,3.423,4.809,5.877.549-3.516,4.741Z" transform="translate(-119.429 -102.777)" fill="#ffd878"/>
        <path id="Path_559" data-name="Path 559" d="M298.738,319.019l-5.6-1.879-5.078,3.01.058-5.9-4.432-3.9,5.632-1.769,2.339-5.42,3.423,4.81,5.877.549-3.516,4.741Z" transform="translate(-120.53 -98.78)" fill="#ffd878"/>
        <path id="Path_560" data-name="Path 560" d="M294.171,208.106l-1.985-.667-1.8,1.068.021-2.094-1.572-1.383,2-.628.83-1.923,1.214,1.706,2.085.195-1.247,1.682Z" transform="translate(-119.968 -109.779)" fill="#ffd878"/>
        <path id="Path_561" data-name="Path 561" d="M248.061,314.178l-1.985-.667-1.8,1.068.021-2.094-1.572-1.383,2-.628.83-1.923,1.214,1.706,2.085.195-1.247,1.682Z" transform="translate(-125.006 -98.19)" fill="#ffd878"/>
        <path id="Path_562" data-name="Path 562" d="M313.466,241.909l-1.985-.667-1.8,1.068.021-2.094-1.572-1.383,2-.628.83-1.923,1.214,1.706,2.085.195-1.247,1.682Z" transform="translate(-117.86 -106.086)" fill="#ffd878"/>
        <path id="Path_563" data-name="Path 563" d="M310.7,210.822l-1.985-.667-1.8,1.068.02-2.094-1.572-1.383,2-.628.83-1.923,1.214,1.706,2.085.195-1.247,1.682Z" transform="translate(-118.161 -109.482)" fill="#ffd878"/>
        <path id="Path_564" data-name="Path 564" d="M296.932,258.26l-1.985-.667-1.8,1.068.021-2.094-1.572-1.383,2-.627.83-1.923,1.214,1.706,2.085.195-1.247,1.682Z" transform="translate(-119.666 -104.3)" fill="#ffd878"/>
        <path id="Path_565" data-name="Path 565" d="M298.666,332.044l-1.985-.667-1.8,1.068.021-2.094-1.572-1.383,2-.627.829-1.923,1.214,1.706,2.085.195L298.207,330Z" transform="translate(-119.477 -96.238)" fill="#ffd878"/>
        <path id="Path_566" data-name="Path 566" d="M240.041,255.849l-1.985-.667-1.8,1.068.021-2.094-1.572-1.383,2-.627.829-1.923,1.214,1.706,2.085.195-1.247,1.682Z" transform="translate(-125.882 -104.563)" fill="#ffd878"/>
        <path id="Path_567" data-name="Path 567" d="M228.794,250.719l-1.985-.667-1.8,1.068.021-2.094-1.572-1.383,2-.627.829-1.923L227.5,246.8l2.085.195-1.247,1.682Z" transform="translate(-127.111 -105.124)" fill="#ffd878"/>
        <path id="Path_568" data-name="Path 568" d="M174.358,192.7c-3.258-1.61-6.542-3.162-9.821-4.73-2.933-1.4-5.976-3.4-9.2-3.91-1.767-.277-3.455,1.8-1.9,3.259,2.4,2.25,5.709,3.413,8.636,4.869,3.25,1.617,6.495,3.248,9.767,4.822C174.714,198.4,177.249,194.131,174.358,192.7Z" transform="translate(-134.828 -111.794)" fill="#8fb73a"/>
        <path id="Path_569" data-name="Path 569" d="M284.11,190.629c-6.455,1.907-12.951,3.682-19.368,5.716-8.932,2.831-10.617,2.41-6.892,11.318,8.523-3.753,19.843-7.663,29.072-8.885C287.744,198.67,289.666,188.988,284.11,190.629Z" transform="translate(-123.555 -111.094)" fill="#aed164"/>
        <path id="Path_570" data-name="Path 570" d="M263.015,141.511a1.359,1.359,0,0,0-1.987-.808c-2.636,2.006-3.208,4.982-4.67,7.9a72.8,72.8,0,0,1-7.07,11.422,68.515,68.515,0,0,1-8.51,9.267c-3.134,2.847-6.894,5.11-9.686,8.3a1.18,1.18,0,0,0,1.138,1.956c8.078-2.144,15.318-10.333,20.341-16.637a69.783,69.783,0,0,0,6.971-10.459C261.311,149.153,263.859,145.318,263.015,141.511Z" transform="translate(-126.31 -116.551)" fill="#aed164"/>
        <path id="Path_571" data-name="Path 571" d="M255.671,131.609a1.746,1.746,0,0,0-1.727,1.728c.012.123.024.246.038.369a1.689,1.689,0,1,0,3.379,0c.013-.123.026-.246.038-.369A1.733,1.733,0,0,0,255.671,131.609Z" transform="translate(-123.78 -117.522)" fill="#aed164"/>
      </g>
      <g id="Group_223" data-name="Group 223" transform="translate(209.236 91.269)">
        <path id="Path_572" data-name="Path 572" d="M387.522,292.476l-7.532,32.113v.011l-1.475,6.289-10.294,43.938-1.4,5.946-9.994,42.651-34.686-7.787-4.637-1.043-32.412-7.277-4.537-1.021h-.011l-17.415-3.9-4.138-20.6-.721-3.55-5.624-28-.71-3.539L247.39,324.09l-.544-2.684-3.117-15.5-.754-3.738-3.605-17.959-.7-3.461L235.61,265.51l18.9,3.35,4.77.854,18.88,3.35,5.147.91h.011l21.031,3.738,4.4.788,29.074,5.158,5.391.954,32.49,5.768,4.248.754Z" transform="translate(-234.312 -194.162)" fill="#bf2525"/>
        <path id="Path_573" data-name="Path 573" d="M258.98,269.384c-4.315,2.94-8.763,5.69-12.945,8.852-2.385,1.808-4.681,3.716-6.966,5.646l-.7-3.461a111.864,111.864,0,0,1,15.84-11.891Z" transform="translate(-234.011 -193.832)" fill="#d93d2a"/>
        <path id="Path_574" data-name="Path 574" d="M282.582,273.23c-5.568,4.16-11.192,8.264-16.594,12.6-7.809,6.267-15.274,12.956-22.984,19.334l-.754-3.738c7.088-6.533,14.7-12.612,22.163-18.624,4.282-3.461,8.608-7.033,13.023-10.482Z" transform="translate(-233.587 -193.418)" fill="#d93d2a"/>
        <path id="Path_575" data-name="Path 575" d="M307.647,277.3c-1.786,1.3-3.561,2.6-5.3,3.916q-10.116,7.67-20.266,15.263c-11.88,8.874-23.749,17.748-35.8,26.411l-.544-2.684c10.882-8.519,21.908-16.861,32.945-25.2q10.116-7.637,20.277-15.219c1.431-1.065,2.862-2.163,4.282-3.272Z" transform="translate(-233.205 -192.96)" fill="#d93d2a"/>
        <path id="Path_576" data-name="Path 576" d="M341.611,282.824c-4.759,3.017-9.584,5.923-14.054,9.018q-15.158,10.449-30.039,21.276c-15.74,11.447-31.181,23.305-46.478,35.341l-.71-3.539c14.01-11.348,28.341-22.285,42.884-32.945q15.274-11.181,30.882-21.9,6.04-4.143,12.124-8.208Z" transform="translate(-232.704 -192.374)" fill="#d93d2a"/>
        <path id="Path_577" data-name="Path 577" d="M377.725,288.684c-8.319,6.5-17.615,11.825-26.367,17.726q-14.06,9.484-27.8,19.423c-15.74,11.425-46.156,36.45-66.8,53.51l-.721-3.55c19.822-16.983,48.352-40.6,63.117-51.425q14.492-10.632,29.429-20.665c8.086-5.424,16.217-11.259,24.892-15.774Z" transform="translate(-232.08 -191.712)" fill="#d93d2a"/>
        <path id="Path_578" data-name="Path 578" d="M375.564,318.78l-1.475,6.289c-4.06,3.372-8.164,6.689-12.257,10.017q-12.779,10.433-25.624,20.81c-13.3,10.782-37.282,31.314-55.54,45.6l-4.537-1.021c18.048-15.652,44.847-37.027,59.145-48.619q13.244-10.749,26.5-21.464C366.146,326.878,370.727,322.474,375.564,318.78Z" transform="translate(-229.885 -188.342)" fill="#d93d2a"/>
        <path id="Path_579" data-name="Path 579" d="M360.155,364.06l-1.4,5.946c-1.7,1.253-3.383,2.474-4.936,3.716q-7.72,6.156-15.5,12.224c-8.031,6.234-15.929,12.956-24.248,18.924l-4.637-1.043c8.863-7.776,18.658-14.7,27.909-21.941,5.014-3.927,10.072-7.8,15.141-11.669C355,368.3,357.515,366.057,360.155,364.06Z" transform="translate(-226.246 -183.395)" fill="#d93d2a"/>
        <path id="Path_580" data-name="Path 580" d="M472.741,262.687l-86.389,33.078-43.594-7.743h-.011l-10.771-1.908h-.011l-18.946-3.361h-.055l-10.139-1.819h-.011L278.4,276.6h-.011l-4.637-.821-13.722-2.44h-.011l-5.236-.921L234.44,268.8l41.83-13.943,19.456-6.478,38.9-12.967,20.166,3.982,10.7,2.119,20.887,4.126h.011l12.557,2.474h.011l19.257,3.816a.015.015,0,0,1,.022,0l12.9,2.54h.022Z" transform="translate(-234.44 -197.45)" fill="#f04832"/>
        <path id="Path_581" data-name="Path 581" d="M389.1,282.491c-10.406,1.614-20.916,1.957-31.316,3.422-1.537.217-1.042,2.492.349,2.579,10.549.654,21.467-1.093,31.88-2.691C392.184,285.467,391.262,282.156,389.1,282.491Z" transform="translate(-221.068 -192.309)" fill="#f77261"/>
        <path id="Path_582" data-name="Path 582" d="M414.416,275.6q-23.028,2.363-46.067,4.725c-7.676.776-15.352,1.564-23.039,2.307-4,.388-8.075.943-12.157,1.342h-.011l-10.771-1.908c7.088-1.675,14.609-1.919,21.841-2.673,7.676-.788,15.363-1.542,23.039-2.307q23.577-2.346,47.166-4.626C416.446,272.261,416.413,275.4,414.416,275.6Z" transform="translate(-224.833 -193.403)" fill="#f77261"/>
        <path id="Path_583" data-name="Path 583" d="M451.419,262.313c-25.468,4.06-51.314,6.434-76.916,9.6q-19.65,2.429-39.29,4.814c-9.54,1.154-19.257,2.762-28.929,3.516h-.055L296.09,278.42c12.335-3.095,25.424-3.993,38.025-5.58q19.1-2.413,38.2-4.77c26.145-3.228,52.346-7.332,78.58-9.639C453.116,258.231,453.6,261.958,451.419,262.313Z" transform="translate(-227.704 -194.936)" fill="#f77261"/>
        <path id="Path_584" data-name="Path 584" d="M427.272,252.841q-39.118,3.078-77.981,8.819c-25.058,3.727-49.817,8.985-74.764,13.311h-.011l-4.637-.821a1.162,1.162,0,0,1,.943-1.187c26.012-7.044,53-11.226,79.644-15.13q31.83-4.676,63.882-7.532a.015.015,0,0,1,.022,0Z" transform="translate(-230.568 -195.824)" fill="#f77261"/>
        <path id="Path_585" data-name="Path 585" d="M396.95,247.1c-11.4,2.207-23.172,3.195-34.631,4.981q-18.269,2.845-36.45,6.19-18.719,3.428-37.327,7.4c-10.105,2.152-20.266,5.08-30.516,6.656h-.011l-5.236-.921a1.52,1.52,0,0,1,.932-1.276c11.758-4.359,24.736-6.323,36.983-8.907q18.086-3.81,36.273-7.133,18.719-3.411,37.526-6.3c6.567-1.009,13.222-2.219,19.889-3.161h.011Z" transform="translate(-232.436 -196.443)" fill="#f77261"/>
        <path id="Path_586" data-name="Path 586" d="M361.378,241.119c-15.9,2.562-31.769,5.125-47.7,7.476q-12.4,1.83-24.814,3.55c-5.38.732-11.115,1.941-16.716,2.318l19.456-6.478q11.081-1.564,22.141-3.217c12.313-1.841,24.637-3.727,36.927-5.768Z" transform="translate(-230.32 -197.058)" fill="#f77261"/>
        <path id="Path_587" data-name="Path 587" d="M458.636,263.88c-6.394,1.206-11.807,5.129-17.8,7.5-8.851,3.5-18.274,5.96-27.3,9.019-7.029,2.383-14.028,4.805-21.012,7.32-3.207,1.155-6.482,1.865-8.922,4.033-43.29-6.807-86.238-16.874-129.742-22.039-.555-.065-.575.741-.123.911,21.345,8.052,44.025,11.572,66.416,15.557,20.465,3.643,41.012,6.942,61.423,10.886-1.507,6.735-2.3,13.732-3.716,20.475q-2.734,12.982-5.506,25.953c-3.484,16.421-7.037,32.952-9.181,49.6-.1.79,1.133.894,1.348.183,5.118-16.953,8.727-34.439,12.447-51.756,1.739-8.1,3.5-16.186,5.217-24.288,1.328-6.285,3.078-13.108,3.219-19.694a3.179,3.179,0,0,0,2.263-3.47c10.937-4.933,23.038-8.26,34.248-12.319,6.745-2.443,13.2-5.5,19.9-8.057,6.022-2.3,12.347-3.866,18.013-7C461.422,265.806,460.28,263.569,458.636,263.88Z" transform="translate(-232.366 -194.343)" fill="#f77261"/>
        <path id="Path_588" data-name="Path 588" d="M285.356,409.723c-5.18-43.938-3.326-92.716-.632-136.877l-1.889.313a231.386,231.386,0,0,1,46.459-17.45l30.763,9.637A231.454,231.454,0,0,0,313.6,282.8l1.889-.313c-2.693,44.159-4.549,90.14.632,134.078Z" transform="translate(-229.236 -195.232)" fill="#d6c48b"/>
        <path id="Path_589" data-name="Path 589" d="M375.489,264.57c-12.079.863-24.28,4.785-36.2.987-6.926-2.206-14.714-2.953-21.847-4.384-14.393-2.887-29.352-4.932-43.476-8.837,8.123-5.434,21.513-6.576,30.973-5.847A210.745,210.745,0,0,1,375.489,264.57Z" transform="translate(-230.121 -196.261)" fill="#e2d4a7"/>
        <path id="Path_590" data-name="Path 590" d="M460.386,260l-1.12,3.638-1.231,3.971-12.18,39.478-1.42,4.57v.011l-12.124,39.29v.011l-1.9,6.112v.011L418.2,396.66,363.67,417.015l-5.191,1.941-13.588,5.069,30.693-130.947Z" transform="translate(-222.373 -194.764)" fill="#d93d2a"/>
        <path id="Path_591" data-name="Path 591" d="M456.982,263.28l-1.231,3.971c-5.746,4.892-12.546,8.885-18.669,13.178Q425.5,288.566,413.91,296.7c-15.274,10.715-30.316,22.984-46.655,32.024-.932.51-2.008-.776-1.165-1.52,13.611-11.891,29.684-21.553,44.47-31.935q11.6-8.12,23.183-16.262C441.264,273.74,448.729,267.34,456.982,263.28Z" transform="translate(-220.09 -194.405)" fill="#f04832"/>
        <path id="Path_592" data-name="Path 592" d="M444.606,302.45l-1.42,4.57v.011q-19.434,13.095-38.147,27.221c-16.051,12.124-31.07,25.579-47.1,37.693-1.021.765-2.174-.876-1.331-1.719,14-13.954,30.338-26.034,46.078-37.948Q423.2,316.737,444.606,302.45Z" transform="translate(-221.124 -190.126)" fill="#f04832"/>
        <path id="Path_593" data-name="Path 593" d="M430.973,342.01l-1.9,6.112v.011c-1.819,1.375-3.727,2.684-5.446,4.06q-4.759,3.777-9.451,7.654-9.351,7.754-18.4,15.9c-11.514,10.36-22.03,21.852-33.444,32.313L357.141,410a1.33,1.33,0,0,1,.3-.965c10.671-13.721,24.348-25.668,37.26-37.227q9.817-8.8,20.011-17.138C419.736,350.573,425.083,345.138,430.973,342.01Z" transform="translate(-221.035 -185.804)" fill="#f04832"/>
        <path id="Path_594" data-name="Path 594" d="M346.9,265.785l38.8,8.6c10.839,2.4,22.431,1.5,32.212,6.63a5.783,5.783,0,0,1-1.216-.329l21.434-8.589c-20.32-5.054-41.715-7.14-62.408-10.443-5.13-.819-10.34-1.639-15.5-1.024s-10.352,2.867-13.374,7.094l1.626-1.191" transform="translate(-222.159 -194.718)" fill="#ece1c3"/>
        <path id="Path_595" data-name="Path 595" d="M413.006,355.259c-4.765,15.284-8.129,30.365-12.893,45.649-8.274,3.661-24.448,9.158-24,8.961,1.837-.918,3.585-11.978,4.212-14.238q2.363-8.539,4.727-17.08,4.729-17.081,9.455-34.162,4.6-16.606,9.192-33.213,2.364-8.539,4.728-17.08c1.079-3.9,1.646-11.452,4.247-14.573,5.1-6.094,16.087-5.606,23.054-8.257-2.563,6.89-2.824,12.593-4.353,19.619-1.505,6.918-3.609,13.686-5.41,20.529C422.076,326.161,417.412,340.663,413.006,355.259Z" transform="translate(-218.963 -193.533)" fill="#ece1c3"/>
        <path id="Path_596" data-name="Path 596" d="M313.02,215.573q2.306,15.041,4.613,30.084" transform="translate(-225.855 -199.617)" fill="#00b2c5"/>
        <path id="Path_597" data-name="Path 597" d="M338.021,205.882c2.261,3.221,3.512,7.028,4.656,10.793a294.878,294.878,0,0,1,11.268,56.349c-2.332,1.411-5.51.445-7.438-1.482s-2.9-4.585-3.815-7.152l-19.4-54.4C319.523,199.418,333.039,198.782,338.021,205.882Z" transform="translate(-224.804 -201.189)" fill="#d6c48b"/>
        <path id="Path_598" data-name="Path 598" d="M306.425,224.581c-1.327-6.183-.287-16.433,5.991-20.083,2.621-1.524,7.458-2.037,10.49-2.676,2.028-.427,11.446.469,12.409-.4-10.938,9.89-3.989,27.2-.225,38.847s10.478,21.6,15.137,32.712c-7.613,3.145-22.283-11.8-26.877-16.652A67.026,67.026,0,0,1,306.425,224.581Z" transform="translate(-226.631 -201.164)" fill="#ece1c3"/>
        <path id="Path_599" data-name="Path 599" d="M393.553,225.136c1.614-5.834-4.26-7.756-8.962-6.866-7.888,1.491-15.218,6.851-20.568,12.611-6.59,7.1-11.314,15.731-15.132,24.631-2.1,4.9-3.9,10.759-1.191,15.354,7.857-3.374,12.931-10.973,17.423-18.247s9.239-14.989,16.846-18.894c2.214-1.136,4.607-1.908,6.769-3.139A9.654,9.654,0,0,0,393.553,225.136Z" transform="translate(-222.216 -199.345)" fill="#d6c48b"/>
        <path id="Path_600" data-name="Path 600" d="M405.337,235.435c-10.233,17.05-36.145,39.858-57.659,34.223,4.541-6.844,13.7-10.322,19.689-15.895,7.489-6.972,16.419-15.491,18.793-25.857.813-3.551.233-7.611-2.305-10.224a41.128,41.128,0,0,1,16.323,2.825c3.245,1.277,6.646,3.37,7.408,6.773C408.216,230.1,406.825,232.954,405.337,235.435Z" transform="translate(-222.068 -199.389)" fill="#ece1c3"/>
        <path id="Path_601" data-name="Path 601" d="M371.323,260.686c-3.92.445-7.744,1.649-11.615,2.41-4.285.842-8.607,1.407-12.927,2.028-.947.136-.728,1.737.227,1.676,8.012-.519,17.3-1.481,24.689-4.732A.747.747,0,0,0,371.323,260.686Z" transform="translate(-222.233 -194.689)" fill="#e2d4a7"/>
        <path id="Path_602" data-name="Path 602" d="M314.713,278.886c-4.089-2.134-8.973-2.674-13.447-3.71-5.073-1.175-10.167-2.576-15.323-3.313a1.665,1.665,0,0,0-.884,3.209c4.934,1.644,10.112,2.663,15.168,3.877,4.466,1.073,9.119,2.809,13.733,2.724A1.507,1.507,0,0,0,314.713,278.886Z" transform="translate(-229.04 -193.47)" fill="#ece1c3"/>
        <path id="Path_603" data-name="Path 603" d="M429.888,269.883c-3.671-.027-6.721,2.781-10.216,3.952-3.808,1.276-7.816,1.933-11.583,3.282-1.235.443-1.131,2.443.324,2.4,4.084-.116,8.222-1.417,12.094-2.653,1.908-.61,3.754-1.473,5.665-2.045,2.393-.715,3.222-.337,4.837-2.228A1.607,1.607,0,0,0,429.888,269.883Z" transform="translate(-215.561 -193.684)" fill="#fffcf5"/>
        <path id="Path_604" data-name="Path 604" d="M391.716,234.1c-4.507,8.51-10.379,14.476-17.578,20.731-1.136.988.312,2.477,1.5,1.94,8.518-3.857,15.584-12.328,19.27-20.807C395.826,233.839,392.854,231.948,391.716,234.1Z" transform="translate(-219.222 -197.697)" fill="#fffcf5"/>
        <path id="Path_605" data-name="Path 605" d="M392.9,225.569a2.327,2.327,0,1,0,2.326,2.327A2.353,2.353,0,0,0,392.9,225.569Z" transform="translate(-217.382 -198.525)" fill="#fffcf5"/>
        <path id="Path_606" data-name="Path 606" d="M330.182,238.235c-1.031-5.009-4.27-9.382-5.412-14.517-1.247-5.607-1.091-11.2-.783-16.888.071-1.3-1.865-1.494-2.221-.3a36.421,36.421,0,0,0-.59,17.226c.946,5.043,2.779,12.36,6.985,15.656A1.221,1.221,0,0,0,330.182,238.235Z" transform="translate(-225.046 -200.692)" fill="#fffcf5"/>
      </g>
      <g id="Group_224" data-name="Group 224" transform="translate(0 126.431)">
        <path id="Path_607" data-name="Path 607" d="M223.654,410.814l24.339-121.042L113.656,313.618l27.143,115.8Z" transform="translate(-38.4 -226.673)" fill="#8fb73a"/>
        <path id="Path_608" data-name="Path 608" d="M256.55,292.68l-88.6-29.53L45.812,287.276l76.4,29.25Z" transform="translate(-45.812 -229.581)" fill="#a4cc4b"/>
        <path id="Path_609" data-name="Path 609" d="M197.562,416.064c4.582-38.855,2.942-80.755.559-119.806l1.672.276A204.686,204.686,0,0,0,158.707,281.1l-27.2,8.524a204.686,204.686,0,0,1,41.086,15.432l-1.672-.276c2.383,39.051,4.023,80.951-.559,119.806Z" transform="translate(-36.45 -227.62)" fill="#d93d2a"/>
        <path id="Path_610" data-name="Path 610" d="M119.9,288.938c10.681.762,21.472,4.232,32.012.873,6.125-1.951,13.013-2.611,19.32-3.877,12.728-2.553,25.957-4.362,38.448-7.815-7.184-4.806-19.025-5.816-27.391-5.171A186.4,186.4,0,0,0,119.9,288.938Z" transform="translate(-37.717 -228.53)" fill="#f04832"/>
        <path id="Path_611" data-name="Path 611" d="M46.042,284.9,83.355,405.749l64.831,24.2-27.143-115.8Z" transform="translate(-45.787 -227.205)" fill="#6a872a"/>
        <path id="Path_612" data-name="Path 612" d="M55.578,288.328c5.654,1.066,10.441,4.536,15.744,6.634,7.828,3.1,16.16,5.27,24.14,7.976,6.217,2.108,12.406,4.25,18.582,6.474,2.836,1.021,5.732,1.648,7.889,3.566,38.283-6.02,76.263-14.922,114.736-19.49.49-.058.508.656.109.805-18.876,7.121-38.934,10.234-58.733,13.758-18.1,3.221-36.269,6.139-54.318,9.627,1.332,5.957,2.03,12.143,3.286,18.106q2.418,11.479,4.869,22.952c3.081,14.522,6.224,29.139,8.12,43.861.09.7-1,.791-1.191.162-4.527-14.992-7.718-30.456-11.007-45.769-1.539-7.159-3.1-14.315-4.613-21.479-1.175-5.558-2.723-11.593-2.847-17.416a2.813,2.813,0,0,1-2-3.069c-9.672-4.362-20.373-7.3-30.287-10.893-5.964-2.161-11.674-4.863-17.594-7.126-5.326-2.034-10.918-3.419-15.929-6.193C53.114,290.03,54.124,288.052,55.578,288.328Z" transform="translate(-44.934 -226.833)" fill="#b4d66d"/>
        <path id="Path_613" data-name="Path 613" d="M144.3,290.011l-34.309,7.608c-9.586,2.125-19.838,1.324-28.486,5.864a5.115,5.115,0,0,0,1.074-.292l-18.955-7.6c17.971-4.469,36.89-6.314,55.19-9.235,4.537-.724,9.145-1.451,13.707-.906s9.155,2.536,11.827,6.274l-1.439-1.054" transform="translate(-43.866 -227.165)" fill="#f04832"/>
        <path id="Path_614" data-name="Path 614" d="M83.079,369.136c4.091,13.555,7.08,26.18,11.294,39.7l21.324,9.434c-1.625-.812-3.162-11.428-3.716-13.426q-2.09-7.552-4.181-15.106-4.181-15.1-8.362-30.209-4.065-14.687-8.129-29.372-2.092-7.552-4.181-15.1c-.955-3.449-1.455-10.128-3.757-12.887-4.511-5.39-14.226-4.96-20.387-7.3,2.267,6.092,2.5,11.136,3.85,17.35,1.331,6.119,3.188,12.1,4.783,18.154C75.067,343.438,79.213,356.331,83.079,369.136Z" transform="translate(-43.936 -226.117)" fill="#bf2525"/>
        <path id="Path_615" data-name="Path 615" d="M166.708,245.608l-4.08,26.6" transform="translate(-33.049 -231.498)" fill="#e6369f"/>
        <path id="Path_616" data-name="Path 616" d="M146.923,237.038a33.034,33.034,0,0,0-4.116,9.545,260.709,260.709,0,0,0-9.964,49.831c2.062,1.248,4.873.394,6.577-1.31s2.565-4.055,3.374-6.325q8.577-24.053,17.153-48.106C163.281,231.321,151.329,230.759,146.923,237.038Z" transform="translate(-36.304 -232.888)" fill="#bf2525"/>
        <path id="Path_617" data-name="Path 617" d="M176,253.574c1.174-5.469.254-14.532-5.3-17.76-2.317-1.348-6.595-1.8-9.277-2.366-1.794-.377-10.123.415-10.974-.354,9.674,8.745,3.527,24.054.2,34.354s-9.266,19.1-13.386,28.928c6.733,2.781,19.706-10.433,23.77-14.725A59.285,59.285,0,0,0,176,253.574Z" transform="translate(-35.821 -232.865)" fill="#f04832"/>
        <path id="Path_618" data-name="Path 618" d="M99.224,254.065c-1.426-5.159,3.768-6.859,7.926-6.073,6.976,1.319,13.459,6.059,18.188,11.152,5.829,6.275,10.007,13.912,13.383,21.782,1.861,4.337,3.451,9.514,1.053,13.578-6.947-2.984-11.434-9.7-15.408-16.136s-8.171-13.256-14.9-16.709c-1.958-1-4.074-1.687-5.986-2.776A8.538,8.538,0,0,1,99.224,254.065Z" transform="translate(-40.003 -231.257)" fill="#d93d2a"/>
        <path id="Path_619" data-name="Path 619" d="M89.9,263.172c9.049,15.079,31.964,35.248,50.99,30.264-4.017-6.052-12.12-9.126-17.413-14.055-6.621-6.165-14.519-13.7-16.619-22.866-.719-3.14-.206-6.73,2.038-9.042a36.373,36.373,0,0,0-14.434,2.5c-2.87,1.129-5.877,2.979-6.55,5.989C87.353,258.457,88.583,260.979,89.9,263.172Z" transform="translate(-41.228 -231.296)" fill="#f04832"/>
        <path id="Path_620" data-name="Path 620" d="M158.87,294.9a40,40,0,0,0-12.572-1.827c-2.07.029-6.618-.112-3.13-3.981a8.235,8.235,0,0,1,3.117-1.926c11.243-4.573,26.142-3.009,36.547,3.164a37.8,37.8,0,0,1,18.1,33.216c-.175,4.679-1.237,9.3-1.312,13.978s1.013,9.683,4.394,12.921a18.476,18.476,0,0,1-14.4-12.07q.256,7.173.511,14.346c-5.954-.28-10.712-5.514-12.511-11.2s-1.317-11.794-1.084-17.75.132-12.2-2.658-17.466C170.858,300.608,165.021,296.826,158.87,294.9Z" transform="translate(-35.315 -227.246)" fill="#bf2525"/>
        <path id="Path_621" data-name="Path 621" d="M159.867,292.158a40,40,0,0,0-12.674-.883c-2.062.185-6.607.384-3.419-3.735a8.236,8.236,0,0,1,2.964-2.153c10.871-5.4,25.843-4.956,36.682.422a37.8,37.8,0,0,1,20.531,31.77c.175,4.679-.538,9.363-.264,14.036s1.734,9.58,5.348,12.557a18.478,18.478,0,0,1-15.259-10.961q.792,7.133,1.583,14.267c-5.959.167-11.095-4.7-13.313-10.23s-2.2-11.663-2.408-17.619-.781-12.174-3.956-17.219C172.248,296.955,166.145,293.621,159.867,292.158Z" transform="translate(-35.229 -227.571)" fill="#f04832"/>
        <path id="Path_622" data-name="Path 622" d="M137.572,289.373a48.628,48.628,0,0,1,21.38-9.425c.542-.282,1.079-.575,1.6-.91a27.729,27.729,0,0,0,4.609-3.977c.5-.5,1.434.167,1,.774a18.852,18.852,0,0,1-3.476,3.675,27.064,27.064,0,0,1,15.069,3.026c.708.4.232,1.626-.564,1.339a33.256,33.256,0,0,0-20.762-1.066,50.452,50.452,0,0,0-9.808,3.922c-2.7,1.4-5.192,3.361-8.1,4.276C137.64,291.286,136.788,289.99,137.572,289.373Z" transform="translate(-35.821 -228.299)" fill="#d93d2a"/>
        <path id="Path_623" data-name="Path 623" d="M117,285.5c3.466.393,6.849,1.459,10.271,2.131,3.79.745,7.612,1.245,11.433,1.794.837.121.643,1.536-.2,1.482-7.086-.458-15.3-1.309-21.833-4.184A.66.66,0,0,1,117,285.5Z" transform="translate(-38.105 -227.139)" fill="#bf2525"/>
        <path id="Path_624" data-name="Path 624" d="M144.065,332.668a3.08,3.08,0,0,0-1.683.395,2.42,2.42,0,0,0,0,4.162,3.1,3.1,0,0,0,1.683.395,2.476,2.476,0,0,0,0-4.952Z" transform="translate(-35.391 -221.988)" fill="#b4d66d"/>
        <path id="Path_625" data-name="Path 625" d="M158.311,353.174a2.375,2.375,0,0,0-2.347,2.348l.019.233a2.328,2.328,0,0,0,4.657,0l.019-.233A2.358,2.358,0,0,0,158.311,353.174Z" transform="translate(-33.778 -219.746)" fill="#b4d66d"/>
        <path id="Path_626" data-name="Path 626" d="M145.214,378.7a1.788,1.788,0,0,0,0,3.574A1.788,1.788,0,0,0,145.214,378.7Z" transform="translate(-35.14 -216.957)" fill="#b4d66d"/>
        <path id="Path_627" data-name="Path 627" d="M160.431,392.66c-3.375,0-3.382,5.247,0,5.247S163.813,392.66,160.431,392.66Z" transform="translate(-33.566 -215.432)" fill="#b4d66d"/>
        <path id="Path_628" data-name="Path 628" d="M206.2,385.669l-.213-.342a2.156,2.156,0,0,0-3.679,0l-.213.342a2.378,2.378,0,1,0,4.105,0Z" transform="translate(-28.774 -216.346)" fill="#b4d66d"/>
        <path id="Path_629" data-name="Path 629" d="M215.469,362.38c-2.785,0-2.79,4.328,0,4.328S218.259,362.38,215.469,362.38Z" transform="translate(-27.505 -218.74)" fill="#b4d66d"/>
        <path id="Path_630" data-name="Path 630" d="M205.014,352.126l.088.058c-1.148-1.4-3.414-.2-3.414,1.414s2.272,2.805,3.414,1.415l-.088.058A1.72,1.72,0,0,0,205.014,352.126Z" transform="translate(-28.782 -219.921)" fill="#b4d66d"/>
        <path id="Path_631" data-name="Path 631" d="M217.121,320.613a1.854,1.854,0,0,0,0,3.706A1.854,1.854,0,0,0,217.121,320.613Z" transform="translate(-27.291 -223.303)" fill="#b4d66d"/>
        <path id="Path_632" data-name="Path 632" d="M206.916,314.164a1.3,1.3,0,0,0-2.378,0,1.378,1.378,0,1,0,2.378,0Z" transform="translate(-28.49 -224.092)" fill="#b4d66d"/>
        <path id="Path_633" data-name="Path 633" d="M102.011,323.127a2.162,2.162,0,0,0-4.325,0,2.12,2.12,0,0,0,.38,1.507,2.093,2.093,0,0,0,3.563,0A2.126,2.126,0,0,0,102.011,323.127Z" transform="translate(-40.147 -223.265)" fill="#b4d66d"/>
        <path id="Path_634" data-name="Path 634" d="M110.778,343.82c-2.871,0-2.875,4.459,0,4.459S113.652,343.82,110.778,343.82Z" transform="translate(-38.95 -220.768)" fill="#b4d66d"/>
        <path id="Path_635" data-name="Path 635" d="M109.508,370.8c-2.764,0-2.769,4.3,0,4.3S112.277,370.8,109.508,370.8Z" transform="translate(-39.08 -217.82)" fill="#b4d66d"/>
        <path id="Path_636" data-name="Path 636" d="M122.094,401.211a2.759,2.759,0,0,0-.849-1.349,1.771,1.771,0,0,0-2.435,0,2.757,2.757,0,0,0-.847,1.349,2.142,2.142,0,1,0,4.131,0Z" transform="translate(-37.939 -214.698)" fill="#b4d66d"/>
        <path id="Path_637" data-name="Path 637" d="M81.557,379.15l-.047-.22a1.95,1.95,0,0,0-3.733,0l-.047.22a1.984,1.984,0,1,0,3.826,0Z" transform="translate(-42.33 -217.083)" fill="#b4d66d"/>
        <path id="Path_638" data-name="Path 638" d="M63.242,321.321c-2.575,0-2.579,4,0,4S65.821,321.321,63.242,321.321Z" transform="translate(-44.119 -223.226)" fill="#b4d66d"/>
        <path id="Path_639" data-name="Path 639" d="M158.287,314.655l-.233-.012c-2.506-.129-2.51,4.022,0,3.893l.233-.012A1.936,1.936,0,0,0,158.287,314.655Z" transform="translate(-33.755 -223.956)" fill="#b4d66d"/>
        <path id="Path_640" data-name="Path 640" d="M124.241,300.511a2.23,2.23,0,1,0,2.23,2.23A2.256,2.256,0,0,0,124.241,300.511Z" transform="translate(-37.487 -225.499)" fill="#b4d66d"/>
        <path id="Path_641" data-name="Path 641" d="M144.339,297.451a1.427,1.427,0,0,0,0,2.853A1.427,1.427,0,0,0,144.339,297.451Z" transform="translate(-35.198 -225.834)" fill="#b4d66d"/>
        <path id="Path_642" data-name="Path 642" d="M84.031,287.072l-.072-.214a1.877,1.877,0,0,0-3.586,0l-.073.214a1.935,1.935,0,1,0,3.732,0Z" transform="translate(-42.054 -227.136)" fill="#b4d66d"/>
        <path id="Path_643" data-name="Path 643" d="M97.192,280.534l-.176-.1a1.935,1.935,0,1,0,0,3.341l.176-.1A1.837,1.837,0,0,0,97.192,280.534Z" transform="translate(-40.536 -227.72)" fill="#b4d66d"/>
        <path id="Path_644" data-name="Path 644" d="M192.217,284.512a1.893,1.893,0,0,0-1.638-.941l-.28,0a1.9,1.9,0,0,0,0,3.789l.28,0a1.893,1.893,0,0,0,1.638-.941A1.839,1.839,0,0,0,192.217,284.512Z" transform="translate(-30.226 -227.35)" fill="#b4d66d"/>
        <path id="Path_645" data-name="Path 645" d="M208.2,288.128c-.011-.084-.034-.261-.079-.579a.23.23,0,0,0-.011-.024,2.224,2.224,0,0,0-2.775-1.779c-.385.125-.631.429-.981.571q.487-.394,0-.013a1.2,1.2,0,0,0-.43.43,2.841,2.841,0,0,0-.415,2.41,2.42,2.42,0,0,0,2.965,1.684A2.453,2.453,0,0,0,208.2,288.128Z" transform="translate(-28.592 -227.123)" fill="#b4d66d"/>
      </g>
      <g id="Group_225" data-name="Group 225" transform="translate(151.298 219.494)">
        <path id="Path_646" data-name="Path 646" d="M200.047,440l-16.918-84.135,75.212,16.575-.7,80.494Z" transform="translate(-182.107 -312.516)" fill="#d6c48b"/>
        <path id="Path_647" data-name="Path 647" d="M182.208,357.62l60.525-19.8,68.03,15.472-51.915,22.019Z" transform="translate(-182.208 -314.487)" fill="#ece1c3"/>
        <path id="Path_648" data-name="Path 648" d="M212.548,444.97c-3.185-27.008-2.044-56.992-.388-84.137l-1.161.192A142.341,142.341,0,0,1,239.556,350.3l18.909,5.925a142.273,142.273,0,0,0-28.558,10.726l1.161-.192c-1.656,27.145-2.8,55.408.388,82.417Z" transform="translate(-179.114 -313.123)" fill="#ba8d1e"/>
        <path id="Path_649" data-name="Path 649" d="M267.951,355.746c-7.424.529-14.924,2.941-22.251.606-4.257-1.355-9.045-1.815-13.43-2.694-8.846-1.775-18.042-3.032-26.724-5.432,4.993-3.341,13.223-4.042,19.039-3.594A129.528,129.528,0,0,1,267.951,355.746Z" transform="translate(-179.658 -313.756)" fill="#d9a72a"/>
        <path id="Path_650" data-name="Path 650" d="M303.273,351.768l-9.069,85.3-45.063,16.824.7-80.494Z" transform="translate(-174.895 -312.963)" fill="#ece1c3"/>
        <path id="Path_651" data-name="Path 651" d="M249.741,357l19.7,8.33-1.275,81.326,12.148-4.535,4.2-82.636-26.233-6.715Z" transform="translate(-174.829 -312.854)" fill="#f0c04a"/>
        <path id="Path_652" data-name="Path 652" d="M229.553,325.627l2.835,18.492" transform="translate(-177.035 -315.819)" fill="#00b2c5"/>
        <path id="Path_653" data-name="Path 653" d="M244.92,319.67a22.945,22.945,0,0,1,2.862,6.634,181.188,181.188,0,0,1,6.926,34.638,3.9,3.9,0,0,1-4.571-.912,11.4,11.4,0,0,1-2.345-4.4L235.869,322.2C233.55,315.7,241.859,315.305,244.92,319.67Z" transform="translate(-176.389 -316.785)" fill="#ba8d1e"/>
        <path id="Path_654" data-name="Path 654" d="M225.5,331.164c-.815-3.8-.176-10.1,3.683-12.345,1.611-.937,4.585-1.252,6.448-1.645,1.247-.262,7.036.288,7.628-.246-6.724,6.08-2.453,16.721-.139,23.879s6.44,13.279,9.3,20.109c-4.68,1.932-13.7-7.252-16.521-10.236A41.2,41.2,0,0,1,225.5,331.164Z" transform="translate(-177.512 -316.769)" fill="#f0c04a"/>
        <path id="Path_655" data-name="Path 655" d="M279.056,331.505c.992-3.586-2.619-4.768-5.509-4.221-4.849.916-9.354,4.211-12.643,7.751a52.183,52.183,0,0,0-9.3,15.14c-1.293,3.015-2.4,6.613-.732,9.439,4.83-2.074,7.948-6.745,10.71-11.217s5.679-9.213,10.355-11.614c1.361-.7,2.832-1.173,4.161-1.929A5.939,5.939,0,0,0,279.056,331.505Z" transform="translate(-174.798 -315.652)" fill="#ba8d1e"/>
        <path id="Path_656" data-name="Path 656" d="M286.3,337.835c-6.291,10.481-22.217,24.5-35.442,21.037,2.791-4.207,8.424-6.345,12.1-9.77,4.6-4.285,10.092-9.522,11.551-15.893a6.873,6.873,0,0,0-1.417-6.285,25.277,25.277,0,0,1,10.033,1.737c1.994.784,4.085,2.071,4.553,4.163C288.069,334.558,287.214,336.311,286.3,337.835Z" transform="translate(-174.707 -315.679)" fill="#f0c04a"/>
        <path id="Path_657" data-name="Path 657" d="M238.973,359.887a27.81,27.81,0,0,1,8.74-1.27c1.439.021,4.6-.078,2.175-2.766a5.724,5.724,0,0,0-2.166-1.339c-7.816-3.178-18.171-2.092-25.4,2.2A26.268,26.268,0,0,0,209.738,379.8c.122,3.252.86,6.463.913,9.716s-.7,6.73-3.055,8.982a12.846,12.846,0,0,0,10.008-8.39l-.356,9.972c4.139-.194,7.446-3.832,8.7-7.783s.915-8.2.754-12.338-.092-8.479,1.846-12.141C230.642,363.856,234.7,361.228,238.973,359.887Z" transform="translate(-179.434 -312.864)" fill="#ba8d1e"/>
        <path id="Path_658" data-name="Path 658" d="M238.571,357.983a27.785,27.785,0,0,1,8.81-.613c1.433.128,4.592.266,2.376-2.6a5.722,5.722,0,0,0-2.06-1.5c-7.556-3.755-17.963-3.445-25.5.293a26.27,26.27,0,0,0-14.272,22.083c-.122,3.252.374,6.508.183,9.757s-1.2,6.658-3.717,8.728A12.844,12.844,0,0,0,215,386.519q-.551,4.958-1.1,9.917c4.142.117,7.712-3.264,9.255-7.11s1.525-8.106,1.674-12.247.542-8.461,2.749-11.968C229.966,361.318,234.208,359,238.571,357.983Z" transform="translate(-179.784 -313.089)" fill="#d9a72a"/>
        <path id="Path_659" data-name="Path 659" d="M252.321,356.047A33.8,33.8,0,0,0,237.46,349.5c-.377-.2-.751-.4-1.11-.632a19.173,19.173,0,0,1-3.2-2.764c-.345-.348-1,.116-.7.539a13.109,13.109,0,0,0,2.416,2.555,18.808,18.808,0,0,0-10.475,2.1c-.491.275-.161,1.13.393.931a23.1,23.1,0,0,1,14.431-.741,35.021,35.021,0,0,1,6.816,2.725c1.877.974,3.61,2.336,5.631,2.973C252.273,357.377,252.867,356.476,252.321,356.047Z" transform="translate(-177.625 -313.596)" fill="#d9a72a"/>
        <path id="Path_660" data-name="Path 660" d="M265.391,353.357c-2.409.274-4.76,1.014-7.139,1.482-2.633.517-5.29.864-7.946,1.247-.583.083-.448,1.067.139,1.029,4.926-.318,10.633-.91,15.177-2.908A.459.459,0,0,0,265.391,353.357Z" transform="translate(-174.809 -312.789)" fill="#f0c04a"/>
        <path id="Path_661" data-name="Path 661" d="M321.48,447.717h-.433" transform="translate(-167.039 -302.48)" fill="#ece1c3"/>
      </g>
    </g>
    <path id="Path_667" data-name="Path 667" d="M171.246,242.679a1.41,1.41,0,0,0-2.758.373c-.166,10.263-1.368,18.833-7.616,27.412-.581.8.656,1.663,1.327,1.024C169.506,264.523,174.34,252.789,171.246,242.679Z" transform="translate(12.554 13.414)" fill="#f77261"/>
    <path id="Path_668" data-name="Path 668" d="M165.717,238.314a2.1,2.1,0,0,0-4.019,0,2.9,2.9,0,0,0-.1.924,2.105,2.105,0,1,0,4.211,0A2.865,2.865,0,0,0,165.717,238.314Z" transform="translate(12.65 12.883)" fill="#f77261"/>
    <path id="Path_669" data-name="Path 669" d="M173.674,287.867a1.294,1.294,0,0,0-.992,2.353c4.529,3.109,8.82,5.933,11.84,10.672,2.794,4.383,3.491,9.2,5.022,14.04a1.1,1.1,0,0,0,2.105,0C194.344,304.162,184.09,290.223,173.674,287.867Z" transform="translate(13.796 18.455)" fill="#f77261"/>
    <path id="Path_670" data-name="Path 670" d="M112.623,274.852c-2.365-3.174-5.076-5.992-7-9.492-1.908-3.474-2.291-7.654-4.28-10.975a1.591,1.591,0,0,0-2.875.375c-.805,4.054,1.412,8.6,3.3,12.126,2.078,3.876,4.949,7.778,8.809,10.011C111.783,277.594,113.558,276.107,112.623,274.852Z" transform="translate(5.735 14.72)" fill="#f77261"/>
  </g>
</svg>
