<svg xmlns="http://www.w3.org/2000/svg" width="77.592" height="84.439" viewBox="0 0 77.592 84.439">
  <g id="_10151398_gift_box_christmas_newyear_winter_icon" data-name="10151398_gift_box_christmas_newyear_winter_icon" transform="translate(-10 -6.645)">
    <path id="Path_692" data-name="Path 692" d="M20,53.393a2.042,2.042,0,0,1,2.042-2.042H75.131a2.042,2.042,0,0,1,2.042,2.042V84.022a4.084,4.084,0,0,1-4.084,4.084H24.084A4.084,4.084,0,0,1,20,84.022Z" transform="translate(0.209 0.936)" fill="#f6b22f"/>
    <path id="Path_693" data-name="Path 693" d="M22.084,49.352H75.173a4.084,4.084,0,0,1,4.084,4.084V84.064a6.126,6.126,0,0,1-6.126,6.126H24.126A6.126,6.126,0,0,1,18,84.064V53.435A4.084,4.084,0,0,1,22.084,49.352Zm0,2.042a2.042,2.042,0,0,0-2.042,2.042V84.064a4.084,4.084,0,0,0,4.084,4.084H73.131a4.084,4.084,0,0,0,4.084-4.084V53.435a2.042,2.042,0,0,0-2.042-2.042Z" transform="translate(0.168 0.895)" fill="#e68c06" fill-rule="evenodd"/>
    <path id="Path_694" data-name="Path 694" d="M21.833,60.625a1.021,1.021,0,0,1,1.021,1.021V80.278a1.021,1.021,0,0,1-2.042,0V61.646A1.021,1.021,0,0,1,21.833,60.625Z" transform="translate(0.226 1.131)" fill="#ffc24a" fill-rule="evenodd"/>
    <path id="Path_695" data-name="Path 695" d="M20.354,85.7a4.085,4.085,0,0,0,3.723,2.4H73.082a4.084,4.084,0,0,0,4.084-4.084V53.393a2.042,2.042,0,0,0-2.042-2.042V81.98a4.084,4.084,0,0,1-4.084,4.084H22.034A4.071,4.071,0,0,1,20.354,85.7Z" transform="translate(0.217 0.936)" fill="#e7a320" fill-rule="evenodd"/>
    <path id="Path_696" data-name="Path 696" d="M20,49.352H77.173V59.433H20Z" transform="translate(0.209 0.895)" fill="#e7a320"/>
    <path id="Path_697" data-name="Path 697" d="M69.638,67.088a.99.99,0,1,1-.99-.99A.99.99,0,0,1,69.638,67.088Z" transform="translate(1.208 1.245)" fill="#e88e07"/>
    <path id="Path_698" data-name="Path 698" d="M71.428,83.527a.99.99,0,1,1-.99-.99A.99.99,0,0,1,71.428,83.527Z" transform="translate(1.245 1.59)" fill="#e88e07"/>
    <path id="Path_699" data-name="Path 699" d="M73.58,69.374a1.337,1.337,0,1,1-1.337-1.337A1.337,1.337,0,0,1,73.58,69.374Z" transform="translate(1.276 1.286)" fill="#e88e07"/>
    <path id="Path_700" data-name="Path 700" d="M72.912,65.112a1,1,0,1,1-1-1A1,1,0,0,1,72.912,65.112Z" transform="translate(1.276 1.204)" fill="#e88e07"/>
    <path id="Path_701" data-name="Path 701" d="M73.754,75.015a2.079,2.079,0,1,1-2.079-2.079A2.079,2.079,0,0,1,73.754,75.015Z" transform="translate(1.248 1.389)" fill="#e88e07"/>
    <path id="Path_702" data-name="Path 702" d="M69.652,71.338A1.337,1.337,0,1,1,68.315,70,1.337,1.337,0,0,1,69.652,71.338Z" transform="translate(1.193 1.327)" fill="#e88e07"/>
    <path id="Path_703" data-name="Path 703" d="M74.055,80.31a1.337,1.337,0,1,1-1.337-1.337A1.337,1.337,0,0,1,74.055,80.31Z" transform="translate(1.286 1.515)" fill="#e88e07"/>
    <path id="Path_704" data-name="Path 704" d="M70.249,79.232a.811.811,0,1,1-.811-.811A.811.811,0,0,1,70.249,79.232Z" transform="translate(1.228 1.503)" fill="#e88e07"/>
    <path id="Path_705" data-name="Path 705" d="M67.517,81.74A1.337,1.337,0,1,1,66.18,80.4,1.337,1.337,0,0,1,67.517,81.74Z" transform="translate(1.149 1.545)" fill="#e88e07"/>
    <path id="Path_706" data-name="Path 706" d="M67.712,77.279a1.337,1.337,0,1,1-1.337-1.337A1.337,1.337,0,0,1,67.712,77.279Z" transform="translate(1.153 1.452)" fill="#e88e07"/>
    <path id="Path_707" data-name="Path 707" d="M62.9,83.515a1,1,0,1,1-1-1A1,1,0,0,1,62.9,83.515Z" transform="translate(1.066 1.589)" fill="#e88e07"/>
    <path id="Path_708" data-name="Path 708" d="M12,44.519a8.168,8.168,0,0,1,8.168-8.168H77.341a8.168,8.168,0,0,1,8.168,8.168v8.168a2.042,2.042,0,0,1-2.042,2.042H14.042A2.042,2.042,0,0,1,12,52.687Z" transform="translate(0.042 0.622)" fill="#ffc658"/>
    <path id="Path_709" data-name="Path 709" d="M20.209,34.352H77.382A10.209,10.209,0,0,1,87.592,44.561v8.168a4.084,4.084,0,0,1-4.084,4.084H14.084A4.084,4.084,0,0,1,10,52.729V44.561A10.21,10.21,0,0,1,20.209,34.352Zm0,2.042a8.168,8.168,0,0,0-8.168,8.168v8.168a2.042,2.042,0,0,0,2.042,2.042H83.508a2.042,2.042,0,0,0,2.042-2.042V44.561a8.168,8.168,0,0,0-8.168-8.168Z" transform="translate(0 0.58)" fill="#cf8c0b" fill-rule="evenodd"/>
    <path id="Path_710" data-name="Path 710" d="M12.268,53.7a2.041,2.041,0,0,0,1.769,1.021H83.461A2.042,2.042,0,0,0,85.5,52.678V44.51a8.171,8.171,0,0,0-5.576-7.748,8.159,8.159,0,0,1,3.534,6.727v8.168A2.042,2.042,0,0,1,81.419,53.7Z" transform="translate(0.047 0.631)" fill="#f2b43d" fill-rule="evenodd"/>
    <path id="Path_711" data-name="Path 711" d="M44.25,36.352h8.463V88.42H44.25Z" transform="translate(0.717 0.622)" fill="#ff4646"/>
    <path id="Path_712" data-name="Path 712" d="M42.25,34.352H54.8V90.5H42.25Zm2.042,2.042V88.462h8.463V36.393Z" transform="translate(0.676 0.58)" fill="#cd2222" fill-rule="evenodd"/>
    <path id="Path_713" data-name="Path 713" d="M46.271,40.352a1.021,1.021,0,0,1,1.021,1.021V57.2a1.021,1.021,0,1,1-2.042,0V41.372A1.021,1.021,0,0,1,46.271,40.352Z" transform="translate(0.738 0.706)" fill="#ff7575" fill-rule="evenodd"/>
    <path id="Path_714" data-name="Path 714" d="M49.4,51.977A1.021,1.021,0,0,1,50.417,53v32.16a1.021,1.021,0,0,1-2.042,0V53A1.021,1.021,0,0,1,49.4,51.977Z" transform="translate(0.804 0.95)" fill="#f02e2e" fill-rule="evenodd"/>
    <path id="Path_715" data-name="Path 715" d="M27.878,40.921c.934,2.585-4.785,1.071-6.447,3.429-2.744,3.892-6.662,4.228-7.6,1.643s.528-5.921,4.405-7.322S26.945,38.336,27.878,40.921Z" transform="translate(0.075 0.658)" fill="#ffe68f"/>
    <path id="Path_716" data-name="Path 716" d="M28.183,35.555c7.7-2.292,15.611-1.207,18.8,0l3.956-2.292c-12.762-5.488-15.889-4.786-19.334-4.786Z" transform="translate(0.381 0.457)" fill="#dc2c2c"/>
    <path id="Path_717" data-name="Path 717" d="M48.05,37.363a2.042,2.042,0,0,1-1.746.143c-2.784-1.053-10.238-2.113-17.5.047a2.042,2.042,0,0,1-2.421-2.846L29.81,27.63a2.042,2.042,0,0,1,1.838-1.153c.3,0,.611-.007.94-.014a25.421,25.421,0,0,1,5.6.382c3.02.549,7.151,1.81,13.6,4.584a2.042,2.042,0,0,1,.217,3.643Zm.57-5.05c-9.652-3.938-13.031-3.869-15.939-3.809-.348.007-.688.014-1.032.014L28.225,35.6c.86-.256,1.722-.47,2.581-.646,6.826-1.4,13.386-.426,16.22.646L50.983,33.3Q49.742,32.771,48.62,32.314Z" transform="translate(0.339 0.415)" fill="#b31b1b" fill-rule="evenodd"/>
    <path id="Path_718" data-name="Path 718" d="M70.9,35.864c-9.074-2.433-15.577-2.18-20.244-.9l-2.74-.861c11.663-6.162,16.108-4.552,19.127-4Z" transform="translate(0.794 0.479)" fill="#bf2222"/>
    <path id="Path_719" data-name="Path 719" d="M50.047,36.951a2.055,2.055,0,0,0,1.16.019c4.239-1.165,10.363-1.459,19.167.9a2.084,2.084,0,0,0,2.215-.79,2.03,2.03,0,0,0,.061-2.328l-3.858-5.759a2,2,0,0,0-1.305-.852c-.2-.037-.422-.082-.66-.13A19.252,19.252,0,0,0,60.59,27.6c-3.291.334-7.581,1.586-13.568,4.749a2.077,2.077,0,0,0-1.107,1.986,1.99,1.99,0,0,0,1.392,1.752Zm.713-1.961c4.136-1.124,9.706-1.44,17.217.194q1.434.312,2.964.721l-3.858-5.759c-.233-.042-.475-.091-.728-.142-2.762-.558-6.858-1.385-15.766,2.824q-1.252.592-2.633,1.32l2.74.861Z" transform="translate(0.752 0.437)" fill="#9d1818" fill-rule="evenodd"/>
    <path id="Path_720" data-name="Path 720" d="M65.278,30.815a1.023,1.023,0,0,0-.2,1.43l1.366,1.793a1.029,1.029,0,0,0,1.636-1.25L66.71,30.995A1.019,1.019,0,0,0,65.278,30.815Z" transform="translate(1.149 0.502)" fill="#de3838" fill-rule="evenodd"/>
    <path id="Path_721" data-name="Path 721" d="M18.524,25.97a42.23,42.23,0,0,1,26.2,8.407l2.509-.941c-8.426-10.8-21.577-14.646-25.268-14.8L21.2,22.525Z" transform="translate(0.179 0.251)" fill="#ea2f2f"/>
    <path id="Path_722" data-name="Path 722" d="M45.488,36.331a2.042,2.042,0,0,1-1.943-.279,40.189,40.189,0,0,0-24.906-8,2.042,2.042,0,0,1-1.685-3.294L19.336,21.7l.672-3.416a2.042,2.042,0,0,1,2.09-1.646c2.22.095,6.711,1.209,11.663,3.613A42.965,42.965,0,0,1,48.89,32.222,2.042,2.042,0,0,1,48,35.39ZM21.246,22.567l-2.68,3.446q1.318-.047,2.591-.005a42.609,42.609,0,0,1,23.614,8.412l2.509-.941q-.671-.861-1.381-1.663c-8.416-9.538-20.393-12.992-23.888-13.141Z" transform="translate(0.137 0.209)" fill="#b31b1b" fill-rule="evenodd"/>
    <path id="Path_723" data-name="Path 723" d="M27.055,25.928A17.62,17.62,0,0,0,22,25.258a1.021,1.021,0,1,1-.15-2.036,19.467,19.467,0,0,1,5.73.734,1.021,1.021,0,1,1-.527,1.973Z" transform="translate(0.228 0.347)" fill="#f44" fill-rule="evenodd"/>
    <path id="Path_724" data-name="Path 724" d="M78.327,27.358c-11.224-.4-18.263,2.9-21.681,5.465l-4.21-.029c7.438-9.537,19.875-12.765,23.134-12.9l-.025,3.718Z" transform="translate(0.889 0.277)" fill="#d92525"/>
    <path id="Path_725" data-name="Path 725" d="M56.674,34.907a2.042,2.042,0,0,0,1.24-.409c3.026-2.273,9.6-5.442,20.382-5.057a2.042,2.042,0,0,0,1.713-3.258l-2.376-3.2.021-3.035a2.042,2.042,0,0,0-2.129-2.054A33.761,33.761,0,0,0,64.769,21a36.905,36.905,0,0,0-13.9,10.58,2.042,2.042,0,0,0,1.6,3.3ZM75.587,23.651,78.369,27.4q-1.32-.047-2.564-.028c-9.742.14-15.968,3.127-19.117,5.493l-4.21-.029q.832-1.067,1.742-2.03C60.5,24.13,69.152,21.1,73.568,20.216a14.108,14.108,0,0,1,2.044-.283Z" transform="translate(0.847 0.236)" fill="#b31b1b" fill-rule="evenodd"/>
    <path id="Path_726" data-name="Path 726" d="M73.257,20.372a1.021,1.021,0,0,1,1.021,1.021v1.521a1.021,1.021,0,0,1-2.042,0V21.393A1.021,1.021,0,0,1,73.257,20.372Z" transform="translate(1.304 0.288)" fill="#ff5252" fill-rule="evenodd"/>
    <path id="Path_727" data-name="Path 727" d="M54.555,13.575c-9.685,5.25-7.8,16.846-7.8,20.227l2.042.319c.847-8.3,6.607-18.377,11.01-13.91C62.771,23.22,52.732,33.87,48.459,35.78h3.387c5.25-.7,13.236-7.985,14.79-14.676C67.821,16,64.208,8.343,54.555,13.575Z" transform="translate(0.767 0.108)" fill="#e33030"/>
    <path id="Path_728" data-name="Path 728" d="M46.459,35.858a2.042,2.042,0,0,1-1.706-2.014c0-.282-.021-.689-.047-1.195a36.784,36.784,0,0,1,.351-8.592,16.736,16.736,0,0,1,8.567-12.236A14.148,14.148,0,0,1,60.8,9.828a7.909,7.909,0,0,1,5.323,2.21,10.4,10.4,0,0,1,2.545,9.57c-.9,3.867-3.572,7.691-6.581,10.592-2.975,2.868-6.671,5.211-9.927,5.646a2.051,2.051,0,0,1-.271.018H48.5a2.043,2.043,0,0,1-2.042-2.006Zm5.945-.124c5.242-1.083,12.77-8.112,14.274-14.588,1.185-5.1-2.427-12.762-12.08-7.529-8.566,4.643-8.083,14.25-7.857,18.748.03.588.055,1.089.055,1.479l2.042.319q.019-.191.042-.383.034-.288.076-.578.076-.527.176-1.059c1.466-7.8,6.665-16,10.715-11.89,2.378,2.412-3.6,9.733-8.268,13.528q-.359.292-.707.556l-.041.031a13.247,13.247,0,0,1-2.247,1.418l-.083.038h3.387Q52.142,35.789,52.4,35.734Zm-.988-4.5a37.411,37.411,0,0,0,3.89-4.074,18.208,18.208,0,0,0,2.729-4.242,2.6,2.6,0,0,0,.3-1.286,1.461,1.461,0,0,0-.656-.414.937.937,0,0,0-.565.067,6.186,6.186,0,0,0-2.433,2.309A23.652,23.652,0,0,0,51.416,31.233Z" transform="translate(0.725 0.067)" fill="#bc2020" fill-rule="evenodd"/>
    <path id="Path_729" data-name="Path 729" d="M50.963,17.026c4.5-5.814,10.107-4.81,10.579-4.715a1.021,1.021,0,1,1-.4,2c-.166-.033-4.768-.943-8.564,3.963a1.021,1.021,0,0,1-1.615-1.25Z" transform="translate(0.854 0.116)" fill="#f44" fill-rule="evenodd"/>
    <path id="Path_730" data-name="Path 730" d="M20.8,39.978a1.021,1.021,0,0,1-.99,1.051,3.565,3.565,0,0,0-2.709,1.71,1.021,1.021,0,0,1-1.662-1.187,5.584,5.584,0,0,1,4.31-2.565A1.021,1.021,0,0,1,20.8,39.978Z" transform="translate(0.11 0.677)" fill="#fff" fill-rule="evenodd"/>
    <path id="Path_731" data-name="Path 731" d="M28.51,18.214c3.063,8.3,12.953,13.974,19.781,17.611C41.893,31.763,35.75,24.3,34,21.021s-.574-7.593,4.084-6.764c6.032,1.074,9.715,15.154,11.677,21.167.234-3.444-.614-15.705-5.679-21.932C36.3,3.921,25.536,10.157,28.51,18.214Z" transform="translate(0.377 0.042)" fill="#f23535"/>
    <path id="Path_732" data-name="Path 732" d="M49.566,37.495a2.043,2.043,0,0,1-2.193.174,78.776,78.776,0,0,1-11.6-7.255c-3.843-3.016-7.414-6.8-9.133-11.451A8.849,8.849,0,0,1,31.518,7.4c4.285-1.784,9.843-.5,14.188,4.846,2.857,3.512,4.413,8.541,5.248,12.915A46.708,46.708,0,0,1,51.838,35.6a2.043,2.043,0,0,1-2.271,1.89ZM49.2,26.947c-.749-4.636-2.261-9.955-5.074-13.413C36.337,3.962,25.578,10.2,28.552,18.256c1.636,4.432,5.222,8.117,9.248,11.143a77.492,77.492,0,0,0,9.87,6.113l.663.355q-.348-.221-.695-.455a48.7,48.7,0,0,1-8.458-7.531,39.486,39.486,0,0,1-5.141-6.818c-1.752-3.277-.574-7.593,4.084-6.764,4,.712,6.967,7.143,9.084,13.148.724,2.052,1.348,4.055,1.88,5.763q.144.462.279.894l.028.089c.143.454.278.88.406,1.272.019-.274.03-.6.034-.984A47.509,47.509,0,0,0,49.2,26.947Zm-2.59,5.17a85.57,85.57,0,0,0-2.989-8.271,25.417,25.417,0,0,0-3.008-5.374,5.149,5.149,0,0,0-2.843-2.163,2.766,2.766,0,0,0-1.639.091,1.211,1.211,0,0,0-.6.616,3.639,3.639,0,0,0,.318,3.083,38.562,38.562,0,0,0,5.108,6.689A50.845,50.845,0,0,0,46.605,32.117Z" transform="translate(0.335 0)" fill="#bc2020" fill-rule="evenodd"/>
    <path id="Path_733" data-name="Path 733" d="M32.918,10.278a1.021,1.021,0,0,1-.273,1.418c-1.017.689-2.979,3.085-1.593,6.841a1.021,1.021,0,1,1-1.916.707c-1.779-4.82.743-8.141,2.363-9.239A1.021,1.021,0,0,1,32.918,10.278Z" transform="translate(0.388 0.067)" fill="#ff7878" fill-rule="evenodd"/>
  </g>
</svg>
