<svg xmlns="http://www.w3.org/2000/svg" xmlns:xlink="http://www.w3.org/1999/xlink" width="518" height="716" viewBox="0 0 518 716">
  <defs>
    <linearGradient id="linear-gradient" x1="0.5" x2="0.5" y2="1" gradientUnits="objectBoundingBox">
      <stop offset="0" stop-color="#fee8c5"/>
      <stop offset="0.574" stop-color="#fff9ef"/>
      <stop offset="1" stop-color="#fff"/>
    </linearGradient>
  </defs>
  <g id="Group_294" data-name="Group 294" transform="translate(-701 -2255)">
    <g id="Group_218" data-name="Group 218" transform="translate(34 167)">
      <rect id="Rectangle_169" data-name="Rectangle 169" width="518" height="716" rx="259" transform="translate(667 2088)" fill="url(#linear-gradient)"/>
      <g id="Rectangle_170" data-name="Rectangle 170" transform="translate(728 2163)" fill="none" stroke="#fff8f8" stroke-width="23">
        <rect width="396" height="548" rx="198" stroke="none"/>
        <rect x="11.5" y="11.5" width="373" height="525" rx="186.5" fill="none"/>
      </g>
    </g>
    <g id="Group_233" data-name="Group 233" transform="translate(677.374 2343.953)">
      <g id="Group_232" data-name="Group 232" transform="translate(45.812 118.91)">
        <ellipse id="Ellipse_52" data-name="Ellipse 52" cx="101.99" cy="25.445" rx="101.99" ry="25.445" transform="translate(20.587 310.03)" fill="#d6d6d6" opacity="0.2"/>
        <ellipse id="Ellipse_53" data-name="Ellipse 53" cx="117.567" cy="30.48" rx="117.567" ry="30.48" transform="translate(231.183 299.959)" fill="#d6d6d6" opacity="0.2"/>
        <ellipse id="Ellipse_55" data-name="Ellipse 55" cx="82.568" cy="25.452" rx="82.568" ry="25.452" transform="translate(151.405 341.109)" fill="#d6d6d6" opacity="0.2"/>
        <g id="Group_222" data-name="Group 222" transform="translate(108.828)">
          <g id="Group_221" data-name="Group 221" transform="translate(81.053 73.561)">
            <path id="Path_522" data-name="Path 522" d="M323.086,378.713l26.3-198.436L204.217,219.37l29.332,189.849Z" transform="translate(-204.217 -180.277)" fill="#d9a72a"/>
          </g>
          <path id="Path_523" data-name="Path 523" d="M362.82,185.393,221.469,230.872,136.6,176.534,268.614,154.55l17.861,5.85,23.938,7.84Z" transform="translate(-136.6 -111.828)" fill="#f0c04a"/>
          <path id="Path_524" data-name="Path 524" d="M294.057,388.382c4.952-63.7,3.179-132.389.6-196.412l1.806.453a182.7,182.7,0,0,0-44.4-25.3l-33.056,13.067c15.34,5.986,33.911,15.391,48.056,26.2l-1.806-.453c2.575,64.022,4.348,132.713-.6,196.412Z" transform="translate(-120.224 -109.329)" fill="#8fb73a"/>
          <path id="Path_525" data-name="Path 525" d="M295.734,167.27c-9.889,2.1-19.982,3.656-29.8,5.622-6.809,1.367-14.253,2.086-20.87,4.2-11.4,3.62-23.051-.12-34.595-.947A201.223,201.223,0,0,1,271.8,159.43Z" transform="translate(-121.921 -110.858)" fill="#8fb73a"/>
          <path id="Path_526" data-name="Path 526" d="M136.6,172.886l40.322,198.121,70.059,39.681L217.652,220.839Z" transform="translate(-136.599 -108.184)" fill="#ba8d1e"/>
          <path id="Path_527" data-name="Path 527" d="M146.279,178.088c6.11,1.749,11.283,7.437,17.013,10.877,8.459,5.078,17.463,8.64,26.086,13.076,6.719,3.455,13.406,6.967,20.081,10.612,3.065,1.675,6.194,2.7,8.525,5.847,41.37-9.869,82.414-24.463,123.988-31.95.53-.1.549,1.073.117,1.32-20.4,11.674-42.074,16.777-63.469,22.555-19.558,5.28-39.194,10.064-58.7,15.782,1.44,9.765,2.194,19.908,3.551,29.684q2.613,18.82,5.261,37.627c3.33,23.808,6.725,47.771,8.775,71.906.1,1.145-1.082,1.3-1.287.264-4.892-24.576-8.341-49.929-11.895-75.032-1.663-11.738-3.348-23.467-4.985-35.213-1.269-9.111-2.943-19-3.077-28.552-1.5-.533-2.345-2.982-2.162-5.031-10.452-7.15-22.017-11.973-32.73-17.858-6.445-3.542-12.615-7.971-19.013-11.681-5.755-3.336-11.8-5.605-17.215-10.153C143.615,180.88,144.707,177.639,146.279,178.088Z" transform="translate(-135.048 -107.159)" fill="#ffd878"/>
          <path id="Path_528" data-name="Path 528" d="M241.477,176.416c-12.359,2.741-22.425,9.821-34.784,12.561a132.308,132.308,0,0,0-31.3,11.228c.4-.062-9.144-4.112-8.767-4.259-6.828-2.737-6.183-5.774-13.011-8.511,19.419-4.83,40.548-11.807,60.323-14.963,4.9-.783,9.882-1.568,14.812-.979s9.893,2.74,12.781,6.78l-1.555-1.139" transform="translate(-133.219 -108.502)" fill="#6a872a"/>
          <path id="Path_529" data-name="Path 529" d="M175.26,309.765c4.421,22.222,7.651,42.917,12.205,65.077l23.044,15.467c-1.756-1.333-3.418-18.736-4.016-22.013q-2.26-12.382-4.518-24.763-4.519-24.763-9.036-49.527-4.393-24.076-8.784-48.151-2.26-12.381-4.518-24.764c-1.032-5.653-1.574-16.6-4.06-21.127-4.875-8.836-15.373-8.128-22.031-11.971,2.45,9.988,2.7,18.258,4.16,28.444,1.44,10.031,3.446,19.843,5.17,29.763C166.6,267.635,171.083,288.771,175.26,309.765Z" transform="translate(-133.232 -105.182)" fill="#6a872a"/>
          <path id="Path_530" data-name="Path 530" d="M257.6,131.63l-4.409,28.75" transform="translate(-113.433 -116.382)" fill="#e6369f"/>
          <path id="Path_531" data-name="Path 531" d="M238.62,123.394c-2.16,3.079-3.355,6.716-4.45,10.315A281.909,281.909,0,0,0,223.4,187.56c2.23,1.347,5.267.424,7.108-1.417s2.771-4.382,3.646-6.835q9.267-25.993,18.537-51.986C256.3,117.216,243.381,116.61,238.62,123.394Z" transform="translate(-119.352 -118.91)" fill="#6a872a"/>
          <path id="Path_532" data-name="Path 532" d="M269.682,141.248c1.268-5.91.274-15.7-5.725-19.193-2.5-1.456-7.128-1.945-10.025-2.557-1.938-.408-10.939.45-11.859-.382,10.453,9.451,3.812,25.994.215,37.124s-10.013,20.644-14.466,31.261c7.276,3.005,21.3-11.274,25.686-15.913A64.058,64.058,0,0,0,269.682,141.248Z" transform="translate(-118.473 -118.869)" fill="#8fb73a"/>
          <path id="Path_533" data-name="Path 533" d="M189.8,140.592c-1.542-5.575,4.072-7.412,8.565-6.563,7.537,1.425,14.544,6.547,19.655,12.052,6.3,6.781,10.814,15.034,14.462,23.539,2.01,4.687,3.729,10.281,1.138,14.673-7.508-3.225-12.356-10.486-16.65-17.438s-8.83-14.325-16.1-18.056c-2.116-1.085-4.4-1.823-6.468-3A9.222,9.222,0,0,1,189.8,140.592Z" transform="translate(-126.08 -115.945)" fill="#6a872a"/>
          <path id="Path_534" data-name="Path 534" d="M180.631,150.462c9.779,16.3,34.542,38.09,55.1,32.7-4.339-6.54-13.1-9.862-18.816-15.189-7.156-6.662-15.69-14.8-17.959-24.71-.777-3.394-.223-7.273,2.2-9.771a39.3,39.3,0,0,0-15.6,2.7c-3.1,1.22-6.352,3.221-7.078,6.473C177.88,145.366,179.209,148.092,180.631,150.462Z" transform="translate(-128.307 -116.015)" fill="#8fb73a"/>
          <path id="Path_535" data-name="Path 535" d="M207.614,171.526c3.746.426,7.4,1.576,11.1,2.3,4.1.806,8.226,1.345,12.355,1.938.905.131.7,1.66-.217,1.6-7.657-.5-16.531-1.414-23.594-4.522A.714.714,0,0,1,207.614,171.526Z" transform="translate(-122.628 -108.455)" fill="#6a872a"/>
          <path id="Path_536" data-name="Path 536" d="M246.847,238.613l-6.047-2.031-5.487,3.253.063-6.379-4.789-4.213,6.086-1.912,2.527-5.857,3.7,5.2,6.351.594-3.8,5.124Z" transform="translate(-117.924 -98.529)" fill="#ffd878"/>
          <path id="Path_537" data-name="Path 537" d="M263.5,283.706l-6.047-2.031-5.487,3.253.063-6.379-4.789-4.213,6.086-1.912,2.527-5.857,3.7,5.2,6.351.594-3.8,5.124Z" transform="translate(-114.614 -89.569)" fill="#ffd878"/>
          <path id="Path_538" data-name="Path 538" d="M258.216,349.563l-6.047-2.031-5.487,3.253.063-6.379-4.789-4.213,6.086-1.912,2.527-5.857,3.7,5.2,6.351.594-3.8,5.124Z" transform="translate(-115.665 -76.482)" fill="#ffd878"/>
          <path id="Path_539" data-name="Path 539" d="M240.586,302.957l-6.047-2.031-5.487,3.253.063-6.379-4.789-4.214,6.086-1.911,2.527-5.857,3.7,5.2,6.351.594-3.8,5.124Z" transform="translate(-119.168 -85.743)" fill="#ffd878"/>
          <path id="Path_540" data-name="Path 540" d="M199.123,233.56l-4.488-2.8-4.658,2.509.782-6.315-3.255-4.8,4.971-1.1,2.646-5.476,2.291,5.634,4.891,1.417-3.556,4.583Z" transform="translate(-126.485 -99.702)" fill="#d9a72a"/>
          <path id="Path_541" data-name="Path 541" d="M180.271,328.8l-4.488-2.8-4.658,2.509.782-6.315-3.255-4.8,4.971-1.1,2.646-5.476,2.291,5.634,4.891,1.417-3.555,4.583Z" transform="translate(-130.231 -80.776)" fill="#d9a72a"/>
          <path id="Path_542" data-name="Path 542" d="M203.341,293.324l-4.488-2.8-4.658,2.509.782-6.315-3.255-4.8,4.971-1.1,2.646-5.476,2.291,5.634,4.891,1.417-3.555,4.583Z" transform="translate(-125.647 -87.826)" fill="#d9a72a"/>
          <path id="Path_543" data-name="Path 543" d="M169.914,268.907l-4.488-2.8-4.658,2.509.782-6.315-3.255-4.8,4.971-1.1,2.646-5.476,2.291,5.634,4.891,1.417-3.556,4.583Z" transform="translate(-132.289 -92.678)" fill="#d9a72a"/>
          <path id="Path_544" data-name="Path 544" d="M202.555,259.969l-1.977-1.234-2.052,1.105.344-2.782-1.434-2.115,2.19-.485,1.166-2.412,1.009,2.482,2.154.624-1.566,2.019Z" transform="translate(-124.511 -92.454)" fill="#d9a72a"/>
          <path id="Path_545" data-name="Path 545" d="M194.49,267.769l-1.977-1.234-2.052,1.105.344-2.782-1.434-2.115,2.19-.485,1.166-2.412,1.009,2.482,2.154.624-1.566,2.019Z" transform="translate(-126.114 -90.904)" fill="#d9a72a"/>
          <path id="Path_546" data-name="Path 546" d="M210.877,328.572l-1.977-1.234-2.052,1.105.344-2.782-1.434-2.115,2.19-.485,1.166-2.412,1.009,2.482,2.154.624-1.566,2.019Z" transform="translate(-122.858 -78.822)" fill="#d9a72a"/>
          <path id="Path_547" data-name="Path 547" d="M210.877,306.548l-1.977-1.234-2.052,1.105.344-2.782-1.434-2.115,2.19-.485,1.166-2.413,1.009,2.482,2.154.624-1.566,2.019Z" transform="translate(-122.858 -83.199)" fill="#d9a72a"/>
          <path id="Path_548" data-name="Path 548" d="M168.705,288.265l-1.977-1.234-2.052,1.105.344-2.782-1.434-2.115,2.19-.485,1.166-2.412,1.009,2.482,2.154.624-1.566,2.019Z" transform="translate(-131.238 -86.832)" fill="#d9a72a"/>
          <path id="Path_549" data-name="Path 549" d="M154.6,209.815l-1.977-1.234-2.052,1.105.344-2.782-1.434-2.115,2.19-.485,1.166-2.413,1.009,2.482L156,205l-1.566,2.019Z" transform="translate(-134.04 -102.42)" fill="#d9a72a"/>
          <path id="Path_550" data-name="Path 550" d="M187.763,241.41l-1.977-1.234-2.052,1.105.344-2.782-1.434-2.115,2.19-.485L186,233.487l1.009,2.482,2.154.624-1.566,2.019Z" transform="translate(-127.451 -96.142)" fill="#d9a72a"/>
          <path id="Path_551" data-name="Path 551" d="M156.013,233.752l-1.977-1.234-2.052,1.105.344-2.782-1.434-2.115,2.19-.485,1.166-2.413,1.009,2.482,2.154.624-1.566,2.019Z" transform="translate(-133.76 -97.664)" fill="#d9a72a"/>
          <path id="Path_552" data-name="Path 552" d="M227.489,202.038l-6.077.235-4.842,3.679-.781-4.355-5.156-1.586,5.594-2.927,1.655-4.659,4.239,2.546,6.179-1.294-2.974,4.5Z" transform="translate(-121.889 -104.301)" fill="#ffd878"/>
          <path id="Path_553" data-name="Path 553" d="M282.832,175.272l-4.067.157-3.24,2.462L275,174.977l-3.451-1.061,3.743-1.959,1.108-3.118,2.836,1.7,4.135-.866-1.99,3.012Z" transform="translate(-109.784 -108.988)" fill="#ffd878"/>
          <path id="Path_554" data-name="Path 554" d="M176.242,176.618l-4.066.158-3.24,2.462-.523-2.915-3.451-1.061,3.743-1.959,1.107-3.118,2.836,1.7,4.135-.866-1.99,3.012Z" transform="translate(-130.964 -108.721)" fill="#ffd878"/>
          <path id="Path_555" data-name="Path 555" d="M298.464,181.427l-2.425.094-1.933,1.469-.312-1.738-2.058-.633,2.233-1.168.661-1.86,1.692,1.016,2.466-.517-1.187,1.8Z" transform="translate(-105.773 -107.249)" fill="#ffd878"/>
          <path id="Path_556" data-name="Path 556" d="M222.345,184.934l-2.425.094-1.932,1.469-.312-1.738-2.058-.633,2.233-1.168.66-1.86,1.692,1.016,2.466-.517-1.187,1.8Z" transform="translate(-120.899 -106.552)" fill="#ffd878"/>
          <path id="Path_557" data-name="Path 557" d="M300.071,238.613l-6.047-2.031-5.487,3.253.063-6.379-4.789-4.213,6.086-1.912,2.527-5.857,3.7,5.2,6.351.594-3.8,5.124Z" transform="translate(-107.348 -98.529)" fill="#ffd878"/>
          <path id="Path_558" data-name="Path 558" d="M310.027,283.706l-6.047-2.031-5.487,3.253.063-6.379-4.789-4.213,6.086-1.912,2.527-5.857,3.7,5.2,6.351.594-3.8,5.124Z" transform="translate(-105.37 -89.569)" fill="#ffd878"/>
          <path id="Path_559" data-name="Path 559" d="M299.952,320.3l-6.047-2.031-5.487,3.253.063-6.379-4.789-4.214,6.086-1.911,2.527-5.857,3.7,5.2,6.351.594-3.8,5.124Z" transform="translate(-107.372 -82.298)" fill="#ffd878"/>
          <path id="Path_560" data-name="Path 560" d="M294.6,208.559l-2.145-.72-1.946,1.154.022-2.263-1.7-1.495,2.159-.678.9-2.078,1.312,1.844,2.253.211-1.348,1.817Z" transform="translate(-106.35 -102.304)" fill="#ffd878"/>
          <path id="Path_561" data-name="Path 561" d="M248.492,314.632l-2.145-.72-1.946,1.154.022-2.263-1.7-1.495,2.159-.678.9-2.078,1.312,1.844,2.253.211L248,312.424Z" transform="translate(-115.512 -81.226)" fill="#ffd878"/>
          <path id="Path_562" data-name="Path 562" d="M313.9,242.363l-2.145-.72-1.946,1.154.022-2.263-1.7-1.495,2.159-.678.9-2.078,1.312,1.844,2.253.211-1.348,1.817Z" transform="translate(-102.516 -95.586)" fill="#ffd878"/>
          <path id="Path_563" data-name="Path 563" d="M311.135,211.276l-2.145-.72-1.946,1.154.022-2.263-1.7-1.495,2.159-.678.9-2.078,1.312,1.844,2.253.211-1.348,1.817Z" transform="translate(-103.065 -101.764)" fill="#ffd878"/>
          <path id="Path_564" data-name="Path 564" d="M297.363,258.713l-2.145-.72-1.946,1.154.022-2.263-1.7-1.495,2.159-.678.9-2.078,1.312,1.844,2.253.21-1.348,1.817Z" transform="translate(-105.801 -92.337)" fill="#ffd878"/>
          <path id="Path_565" data-name="Path 565" d="M299.1,332.5l-2.145-.72-1.947,1.154.022-2.263-1.7-1.495,2.159-.678.9-2.078,1.312,1.844,2.253.211L298.6,330.29Z" transform="translate(-105.457 -77.676)" fill="#ffd878"/>
          <path id="Path_566" data-name="Path 566" d="M240.471,256.3l-2.145-.72-1.946,1.154.022-2.263-1.7-1.495,2.159-.678.9-2.078,1.312,1.844,2.253.211-1.348,1.818Z" transform="translate(-117.106 -92.816)" fill="#ffd878"/>
          <path id="Path_567" data-name="Path 567" d="M229.224,251.172l-2.145-.72-1.946,1.154.022-2.263-1.7-1.495,2.159-.678.9-2.078,1.312,1.844,2.253.211-1.348,1.817Z" transform="translate(-119.341 -93.836)" fill="#ffd878"/>
          <path id="Path_568" data-name="Path 568" d="M176.095,193.4c-3.521-1.739-7.07-3.418-10.613-5.111-3.169-1.514-6.457-3.678-9.944-4.225-1.91-.3-3.734,1.943-2.051,3.522,2.592,2.431,6.17,3.688,9.332,5.261,3.512,1.748,7.018,3.51,10.555,5.211C176.48,199.553,179.219,194.945,176.095,193.4Z" transform="translate(-133.377 -105.968)" fill="#8fb73a"/>
          <path id="Path_569" data-name="Path 569" d="M286.377,190.645c-6.975,2.061-13.995,3.979-20.929,6.177-9.652,3.059-11.473,2.6-7.448,12.23,9.211-4.055,21.444-8.281,31.417-9.6C290.3,199.334,292.382,188.87,286.377,190.645Z" transform="translate(-112.875 -104.696)" fill="#aed164"/>
          <path id="Path_570" data-name="Path 570" d="M265.614,141.592a1.469,1.469,0,0,0-2.147-.873c-2.848,2.167-3.467,5.383-5.047,8.534A78.676,78.676,0,0,1,250.78,161.6a74.041,74.041,0,0,1-9.2,10.014c-3.386,3.077-7.45,5.522-10.467,8.968a1.275,1.275,0,0,0,1.23,2.113c8.729-2.317,16.553-11.166,21.982-17.978a75.41,75.41,0,0,0,7.533-11.3C263.773,149.851,266.526,145.706,265.614,141.592Z" transform="translate(-117.885 -114.62)" fill="#aed164"/>
          <path id="Path_571" data-name="Path 571" d="M255.811,131.609a1.887,1.887,0,0,0-1.866,1.868c.013.133.026.266.041.4a1.826,1.826,0,0,0,3.651,0c.014-.133.028-.266.041-.4A1.873,1.873,0,0,0,255.811,131.609Z" transform="translate(-113.284 -116.386)" fill="#aed164"/>
        </g>
        <g id="Group_223" data-name="Group 223" transform="translate(226.11 98.629)">
          <path id="Path_572" data-name="Path 572" d="M399.773,294.651l-8.139,34.7v.012l-1.594,6.8-11.124,47.481-1.51,6.425-10.8,46.09-37.484-8.415-5.011-1.127-35.026-7.864-4.9-1.1h-.012l-18.82-4.219-4.471-22.26-.779-3.836-6.077-30.255-.767-3.824-4.915-24.442-.587-2.9-3.368-16.746-.815-4.04-3.9-19.407-.755-3.74-3.308-16.47,20.426,3.62,5.154.923,20.4,3.62,5.562.983h.012l22.728,4.04,4.759.851,31.418,5.574,5.826,1.031,35.11,6.233,4.591.815Z" transform="translate(-234.208 -188.408)" fill="#bf2525"/>
          <path id="Path_573" data-name="Path 573" d="M260.642,269.453c-4.663,3.177-9.47,6.149-13.989,9.566-2.577,1.954-5.059,4.016-7.528,6.1l-.755-3.74a120.883,120.883,0,0,1,17.118-12.85Z" transform="translate(-233.659 -187.808)" fill="#d93d2a"/>
          <path id="Path_574" data-name="Path 574" d="M285.835,273.3c-6.018,4.5-12.095,8.93-17.933,13.617-8.439,6.773-16.506,14-24.837,20.893l-.815-4.04c7.66-7.06,15.883-13.629,23.95-20.126,4.627-3.74,9.3-7.6,14.073-11.328Z" transform="translate(-232.888 -187.055)" fill="#d93d2a"/>
          <path id="Path_575" data-name="Path 575" d="M312.64,277.361c-1.93,1.4-3.848,2.8-5.73,4.231q-10.932,8.289-21.9,16.494c-12.838,9.59-25.664,19.179-38.682,28.541l-.587-2.9c11.759-9.206,23.674-18.22,35.6-27.235q10.932-8.253,21.912-16.446c1.546-1.151,3.093-2.337,4.627-3.536Z" transform="translate(-232.195 -186.222)" fill="#d93d2a"/>
          <path id="Path_576" data-name="Path 576" d="M348.972,282.9c-5.142,3.26-10.357,6.4-15.188,9.745q-16.38,11.292-32.461,22.991c-17.01,12.371-33.7,25.185-50.226,38.191L250.33,350c15.14-12.263,30.627-24.082,46.342-35.6q16.506-12.083,33.372-23.663,6.527-4.477,13.1-8.87Z" transform="translate(-231.283 -185.157)" fill="#d93d2a"/>
          <path id="Path_577" data-name="Path 577" d="M387.538,288.745c-8.99,7.024-19.035,12.778-28.493,19.155q-15.194,10.249-30.04,20.989c-17.01,12.347-49.878,39.39-72.186,57.826l-.779-3.836c21.421-18.352,52.252-43.873,68.206-55.572q15.661-11.49,31.8-22.332c8.739-5.862,17.525-12.167,26.9-17.046Z" transform="translate(-230.148 -183.953)" fill="#d93d2a"/>
          <path id="Path_578" data-name="Path 578" d="M383.582,318.78l-1.594,6.8c-4.387,3.644-8.823,7.228-13.246,10.824q-13.809,11.274-27.69,22.488c-14.373,11.651-40.289,33.84-60.019,49.279l-4.9-1.1c19.5-16.914,48.464-40.013,63.915-52.539q14.313-11.615,28.637-23.2C373.405,327.531,378.356,322.772,383.582,318.78Z" transform="translate(-226.156 -177.823)" fill="#d93d2a"/>
          <path id="Path_579" data-name="Path 579" d="M364.245,364.06l-1.51,6.425c-1.834,1.354-3.656,2.673-5.334,4.016q-8.343,6.653-16.746,13.21c-8.679,6.737-17.213,14-26.2,20.45l-5.011-1.127c9.578-8.4,20.162-15.883,30.16-23.71,5.418-4.243,10.884-8.427,16.362-12.61C358.671,368.639,361.392,366.218,364.245,364.06Z" transform="translate(-219.537 -168.825)" fill="#d93d2a"/>
          <path id="Path_580" data-name="Path 580" d="M491.959,264.886,398.6,300.632l-47.109-8.367h-.012L339.842,290.2h-.012l-20.474-3.632h-.06l-10.956-1.966h-.012l-26.384-4.687h-.012l-5.011-.887-14.828-2.637h-.012l-5.658-.995-21.984-3.908,45.2-15.068,21.025-7,42.039-14.013,21.793,4.3L376.067,242l22.572,4.459h.012l13.569,2.673h.012l20.81,4.124a.017.017,0,0,1,.024,0L447.007,256h.024Z" transform="translate(-234.44 -194.389)" fill="#f04832"/>
          <path id="Path_581" data-name="Path 581" d="M391.7,282.493c-11.245,1.744-22.6,2.115-33.842,3.7-1.661.235-1.126,2.694.378,2.787,11.4.707,23.2-1.181,34.451-2.908C395.034,285.709,394.038,282.131,391.7,282.493Z" transform="translate(-210.119 -185.038)" fill="#f77261"/>
          <path id="Path_582" data-name="Path 582" d="M421.839,275.854q-24.885,2.553-49.782,5.106c-8.3.839-16.59,1.69-24.9,2.493-4.327.42-8.727,1.019-13.138,1.45h-.012l-11.639-2.062c7.66-1.81,15.787-2.074,23.6-2.889,8.3-.851,16.6-1.666,24.9-2.493q25.479-2.535,50.969-5C424.032,272.246,424,275.638,421.839,275.854Z" transform="translate(-216.968 -187.028)" fill="#f77261"/>
          <path id="Path_583" data-name="Path 583" d="M463.945,262.627c-27.522,4.387-55.452,6.953-83.118,10.369q-21.235,2.625-42.458,5.2c-10.309,1.247-20.81,2.985-31.262,3.8h-.06l-10.956-1.966c13.33-3.344,27.474-4.315,41.092-6.03q20.642-2.607,41.284-5.154c28.254-3.488,56.567-7.923,84.917-10.417C465.779,258.216,466.307,262.243,463.945,262.627Z" transform="translate(-222.19 -189.816)" fill="#f77261"/>
          <path id="Path_584" data-name="Path 584" d="M439.965,253.046q-42.272,3.326-84.269,9.53c-27.079,4.028-53.834,9.71-80.793,14.385h-.012l-5.011-.887a1.255,1.255,0,0,1,1.019-1.283c28.11-7.612,57.274-12.131,86.067-16.35q34.4-5.053,69.034-8.139a.017.017,0,0,1,.024,0Z" transform="translate(-227.398 -191.431)" fill="#f77261"/>
          <path id="Path_585" data-name="Path 585" d="M408.576,247.3c-12.323,2.385-25.041,3.452-37.424,5.382q-19.743,3.075-39.39,6.689-20.228,3.7-40.337,8c-10.92,2.326-21.9,5.49-32.976,7.192h-.012l-5.658-.995a1.642,1.642,0,0,1,1.007-1.379c12.706-4.711,26.731-6.833,39.965-9.626q19.545-4.118,39.2-7.708,20.228-3.686,40.552-6.809c7.1-1.091,14.289-2.4,21.493-3.416h.012Z" transform="translate(-230.796 -192.557)" fill="#f77261"/>
          <path id="Path_586" data-name="Path 586" d="M368.574,241.29c-17.177,2.769-34.331,5.538-51.544,8.079q-13.4,1.978-26.815,3.836c-5.814.791-12.011,2.1-18.065,2.505l21.025-7q11.975-1.69,23.926-3.476c13.306-1.99,26.623-4.028,39.905-6.233Z" transform="translate(-226.947 -193.676)" fill="#f77261"/>
          <path id="Path_587" data-name="Path 587" d="M475.185,263.882c-6.909,1.3-12.759,5.543-19.239,8.107-9.564,3.786-19.748,6.441-29.5,9.747-7.6,2.575-15.159,5.193-22.706,7.91-3.465,1.248-7.005,2.015-9.641,4.359-46.781-7.356-93.192-18.235-140.2-23.816-.6-.071-.621.8-.133.984,23.067,8.7,47.576,12.5,71.771,16.812,22.115,3.937,44.32,7.5,66.376,11.764-1.629,7.279-2.481,14.839-4.016,22.126q-2.954,14.028-5.95,28.046c-3.765,17.746-7.6,35.609-9.922,53.6-.11.853,1.224.966,1.456.2,5.531-18.32,9.43-37.216,13.451-55.929,1.88-8.748,3.785-17.492,5.638-26.247,1.435-6.792,3.326-14.165,3.479-21.282a3.436,3.436,0,0,0,2.445-3.75c11.819-5.331,24.9-8.926,37.01-13.313,7.289-2.64,14.266-5.941,21.5-8.706,6.508-2.487,13.343-4.178,19.466-7.569C478.2,265.963,476.961,263.547,475.185,263.882Z" transform="translate(-230.669 -188.738)" fill="#f77261"/>
          <path id="Path_588" data-name="Path 588" d="M285.621,422.143c-5.6-47.481-3.594-100.193-.683-147.915l-2.041.338A250.046,250.046,0,0,1,333.1,255.71l33.244,10.414a250.118,250.118,0,0,0-50.206,18.858l2.041-.338c-2.91,47.721-4.916,97.409.683,144.89Z" transform="translate(-224.976 -190.355)" fill="#d6c48b"/>
          <path id="Path_589" data-name="Path 589" d="M383.676,266.044c-13.053.933-26.238,5.171-39.119,1.067-7.485-2.384-15.9-3.191-23.609-4.737-15.553-3.12-31.719-5.329-46.982-9.55,8.778-5.872,23.248-7.106,33.47-6.318A227.74,227.74,0,0,1,383.676,266.044Z" transform="translate(-226.586 -192.227)" fill="#e2d4a7"/>
          <path id="Path_590" data-name="Path 590" d="M469.7,260l-1.211,3.932-1.331,4.291L454,310.885l-1.534,4.939v.012l-13.1,42.458v.012l-2.05,6.6v.012l-13.2,42.758-58.929,22-5.61,2.1-14.684,5.478,33.168-141.508Z" transform="translate(-212.493 -189.503)" fill="#d93d2a"/>
          <path id="Path_591" data-name="Path 591" d="M464.337,263.28l-1.331,4.291c-6.209,5.286-13.557,9.6-20.174,14.241Q430.317,290.6,417.791,299.4c-16.506,11.58-32.761,24.837-50.418,34.607-1.007.551-2.17-.839-1.259-1.642,14.708-12.85,32.077-23.291,48.056-34.511q12.532-8.775,25.053-17.573C447.351,274.584,455.418,267.667,464.337,263.28Z" transform="translate(-208.341 -188.851)" fill="#f04832"/>
          <path id="Path_592" data-name="Path 592" d="M451.726,302.45l-1.534,4.939v.012q-21,14.151-41.224,29.416c-17.345,13.1-33.576,27.642-50.9,40.732-1.1.827-2.349-.947-1.438-1.858,15.128-15.08,32.785-28.134,49.794-41.008Q428.6,317.889,451.726,302.45Z" transform="translate(-210.222 -181.068)" fill="#f04832"/>
          <path id="Path_593" data-name="Path 593" d="M436.927,342.01l-2.05,6.6v.012c-1.966,1.486-4.028,2.9-5.886,4.387q-5.142,4.082-10.213,8.271-10.105,8.379-19.887,17.177c-12.443,11.2-23.806,23.615-36.141,34.918l-5.61,2.1a1.437,1.437,0,0,1,.324-1.043C369,399.608,383.777,386.7,397.729,374.207q10.609-9.512,21.625-18.52C424.784,351.264,430.562,345.39,436.927,342.01Z" transform="translate(-210.06 -173.207)" fill="#f04832"/>
          <path id="Path_594" data-name="Path 594" d="M346.9,266.217l41.926,9.3c11.713,2.6,24.24,1.618,34.809,7.165a6.249,6.249,0,0,1-1.314-.356l23.163-9.282c-21.959-5.461-45.079-7.716-67.441-11.285-5.544-.885-11.174-1.772-16.75-1.106s-11.186,3.1-14.453,7.666l1.757-1.287" transform="translate(-212.104 -189.42)" fill="#ece1c3"/>
          <path id="Path_595" data-name="Path 595" d="M415.982,362.033c-5.15,16.517-8.784,32.813-13.933,49.33-8.941,3.956-26.419,9.9-25.938,9.683,1.985-.993,3.874-12.944,4.552-15.387q2.553-9.228,5.108-18.458,5.11-18.459,10.218-36.917,4.966-17.945,9.934-35.892,2.555-9.228,5.109-18.458c1.166-4.213,1.779-12.375,4.59-15.749,5.514-6.586,17.385-6.058,24.913-8.923-2.77,7.445-3.052,13.609-4.7,21.2-1.627,7.476-3.9,14.79-5.846,22.185C425.784,330.588,420.743,346.26,415.982,362.033Z" transform="translate(-206.291 -187.264)" fill="#ece1c3"/>
          <path id="Path_596" data-name="Path 596" d="M313.02,215.573q2.492,16.255,4.985,32.51" transform="translate(-218.825 -198.331)" fill="#00b2c5"/>
          <path id="Path_597" data-name="Path 597" d="M339.262,206.261c2.443,3.481,3.8,7.6,5.031,11.663a318.657,318.657,0,0,1,12.176,60.893c-2.52,1.525-5.954.481-8.037-1.6s-3.133-4.954-4.122-7.729L323.347,210.7C319.272,199.275,333.878,198.588,339.262,206.261Z" transform="translate(-216.914 -201.189)" fill="#d6c48b"/>
          <path id="Path_598" data-name="Path 598" d="M306.466,226.449c-1.434-6.682-.31-17.758,6.474-21.7,2.833-1.647,8.059-2.2,11.336-2.891,2.191-.462,12.369.507,13.41-.433-11.82,10.688-4.311,29.395-.243,41.98s11.323,23.344,16.358,35.35c-8.227,3.4-24.08-12.748-29.045-18A72.432,72.432,0,0,1,306.466,226.449Z" transform="translate(-220.237 -201.143)" fill="#ece1c3"/>
          <path id="Path_599" data-name="Path 599" d="M397.362,225.706c1.744-6.3-4.6-8.381-9.684-7.42-8.524,1.611-16.445,7.4-22.226,13.628-7.122,7.668-12.227,17-16.353,26.617-2.274,5.3-4.218,11.626-1.287,16.593,8.49-3.647,13.973-11.858,18.828-19.719s9.984-16.2,18.2-20.418c2.393-1.227,4.978-2.062,7.315-3.392S396.645,228.3,397.362,225.706Z" transform="translate(-212.207 -197.836)" fill="#d6c48b"/>
          <path id="Path_600" data-name="Path 600" d="M409.987,236.868c-11.058,18.425-39.06,43.072-62.309,36.983,4.908-7.4,14.809-11.154,21.277-17.176,8.092-7.534,17.743-16.74,20.309-27.942.879-3.837.252-8.224-2.491-11.048a44.445,44.445,0,0,1,17.639,3.053c3.506,1.38,7.181,3.642,8,7.319C413.1,231.106,411.594,234.188,409.987,236.868Z" transform="translate(-211.939 -197.916)" fill="#ece1c3"/>
          <path id="Path_601" data-name="Path 601" d="M373.352,260.687c-4.236.481-8.368,1.782-12.552,2.6-4.631.91-9.3,1.52-13.97,2.191-1.024.147-.786,1.877.246,1.811,8.658-.561,18.693-1.6,26.68-5.114A.807.807,0,0,0,373.352,260.687Z" transform="translate(-212.238 -189.367)" fill="#e2d4a7"/>
          <path id="Path_602" data-name="Path 602" d="M317.2,279.454c-4.418-2.306-9.7-2.89-14.532-4.01-5.482-1.269-10.987-2.783-16.559-3.581a1.8,1.8,0,0,0-.955,3.468c5.332,1.776,10.927,2.878,16.391,4.189,4.826,1.159,9.855,3.035,14.84,2.944A1.629,1.629,0,0,0,317.2,279.454Z" transform="translate(-224.618 -187.15)" fill="#ece1c3"/>
          <path id="Path_603" data-name="Path 603" d="M431.715,269.883c-3.967-.029-7.263,3.005-11.04,4.271-4.115,1.379-8.446,2.089-12.517,3.547-1.334.478-1.223,2.64.35,2.594,4.414-.126,8.885-1.531,13.07-2.867,2.062-.659,4.056-1.592,6.122-2.21,2.586-.773,3.482-.364,5.228-2.408A1.737,1.737,0,0,0,431.715,269.883Z" transform="translate(-200.104 -187.539)" fill="#fffcf5"/>
          <path id="Path_604" data-name="Path 604" d="M393.167,234.174c-4.87,9.2-11.216,15.643-19,22.4-1.227,1.068.337,2.677,1.617,2.1,9.2-4.168,16.841-13.322,20.824-22.485C397.608,233.895,394.4,231.851,393.167,234.174Z" transform="translate(-206.763 -194.838)" fill="#fffcf5"/>
          <path id="Path_605" data-name="Path 605" d="M393.084,225.569a2.514,2.514,0,1,0,2.514,2.515A2.543,2.543,0,0,0,393.084,225.569Z" transform="translate(-203.416 -196.344)" fill="#fffcf5"/>
          <path id="Path_606" data-name="Path 606" d="M330.969,240.856c-1.114-5.413-4.614-10.139-5.849-15.687-1.347-6.059-1.18-12.1-.846-18.25.077-1.407-2.015-1.615-2.4-.324a39.358,39.358,0,0,0-.638,18.615c1.022,5.449,3,13.357,7.548,16.919A1.319,1.319,0,0,0,330.969,240.856Z" transform="translate(-217.354 -200.286)" fill="#fffcf5"/>
        </g>
        <g id="Group_224" data-name="Group 224" transform="translate(0 136.626)">
          <path id="Path_607" data-name="Path 607" d="M232.525,420.575l26.3-130.8L113.656,315.541l29.332,125.142Z" transform="translate(-32.331 -221.584)" fill="#8fb73a"/>
          <path id="Path_608" data-name="Path 608" d="M273.544,295.062,177.8,263.15,45.812,289.222l82.562,31.609Z" transform="translate(-45.812 -226.874)" fill="#a4cc4b"/>
          <path id="Path_609" data-name="Path 609" d="M202.89,426.948c4.952-41.988,3.179-87.267.6-129.468l1.806.3A221.191,221.191,0,0,0,160.9,281.1l-29.4,9.211a221.191,221.191,0,0,1,44.4,16.676l-1.806-.3c2.575,42.2,4.348,87.479-.6,129.468Z" transform="translate(-28.784 -223.307)" fill="#d93d2a"/>
          <path id="Path_610" data-name="Path 610" d="M119.9,290.242c11.542.823,23.2,4.573,34.594.943,6.619-2.109,14.062-2.822,20.878-4.19,13.754-2.759,28.05-4.713,41.548-8.445-7.763-5.194-20.559-6.285-29.6-5.588A201.427,201.427,0,0,0,119.9,290.242Z" transform="translate(-31.089 -224.962)" fill="#f04832"/>
          <path id="Path_611" data-name="Path 611" d="M46.042,284.9l40.322,130.6,70.059,26.156L127.091,316.509Z" transform="translate(-45.766 -222.552)" fill="#6a872a"/>
          <path id="Path_612" data-name="Path 612" d="M55.718,288.33c6.11,1.152,11.283,4.9,17.013,7.169,8.459,3.347,17.463,5.7,26.086,8.619,6.719,2.278,13.406,4.592,20.081,7,3.065,1.1,6.194,1.781,8.525,3.854,41.37-6.505,82.414-16.125,123.988-21.061.53-.062.549.708.117.87-20.4,7.7-42.073,11.059-63.469,14.868-19.557,3.481-39.194,6.634-58.7,10.4,1.44,6.437,2.194,13.122,3.551,19.566q2.613,12.4,5.261,24.8c3.33,15.693,6.726,31.489,8.775,47.4.1.754-1.082.855-1.287.175-4.892-16.2-8.341-32.912-11.895-49.46-1.663-7.736-3.348-15.469-4.985-23.211-1.269-6.007-2.943-12.528-3.077-18.821a3.04,3.04,0,0,1-2.162-3.317c-10.452-4.713-22.015-7.892-32.73-11.771-6.445-2.335-12.615-5.255-19.013-7.7-5.755-2.2-11.8-3.694-17.213-6.692C53.054,290.17,54.146,288.032,55.718,288.33Z" transform="translate(-44.215 -221.876)" fill="#b4d66d"/>
          <path id="Path_613" data-name="Path 613" d="M150.8,290.394l-37.076,8.222c-10.359,2.3-21.438,1.431-30.783,6.336a5.526,5.526,0,0,0,1.16-.315L63.621,296.43c19.42-4.83,39.865-6.823,59.641-9.979,4.9-.783,9.882-1.568,14.812-.979s9.893,2.74,12.781,6.78l-1.555-1.139" transform="translate(-42.273 -222.48)" fill="#f04832"/>
          <path id="Path_614" data-name="Path 614" d="M84.7,375.126c4.421,14.648,7.651,28.291,12.205,42.9l23.044,10.2c-1.756-.877-3.418-12.349-4.016-14.509q-2.258-8.161-4.518-16.324-4.519-16.323-9.036-32.646Q97.986,348.868,93.6,333q-2.26-8.161-4.518-16.323c-1.032-3.727-1.573-10.944-4.06-13.927-4.875-5.825-15.373-5.359-22.031-7.891,2.45,6.583,2.7,12.034,4.161,18.749,1.438,6.612,3.445,13.079,5.169,19.618C76.041,347.355,80.522,361.288,84.7,375.126Z" transform="translate(-42.399 -220.574)" fill="#bf2525"/>
          <path id="Path_615" data-name="Path 615" d="M167.037,245.608l-4.409,28.75" transform="translate(-22.6 -230.36)" fill="#e6369f"/>
          <path id="Path_616" data-name="Path 616" d="M148.058,237.372c-2.16,3.078-3.355,6.716-4.448,10.315a281.733,281.733,0,0,0-10.768,53.85c2.228,1.349,5.266.426,7.107-1.416s2.771-4.382,3.646-6.835q9.269-25.993,18.537-51.986C165.736,231.194,152.82,230.588,148.058,237.372Z" transform="translate(-28.518 -232.888)" fill="#bf2525"/>
          <path id="Path_617" data-name="Path 617" d="M179.121,255.226c1.268-5.91.274-15.7-5.725-19.193-2.5-1.456-7.126-1.946-10.025-2.557-1.938-.408-10.939.448-11.859-.382,10.454,9.451,3.812,25.994.215,37.124s-10.013,20.643-14.466,31.261c7.276,3.005,21.3-11.274,25.687-15.913A64.066,64.066,0,0,0,179.121,255.226Z" transform="translate(-27.64 -232.847)" fill="#f04832"/>
          <path id="Path_618" data-name="Path 618" d="M99.243,254.57c-1.542-5.575,4.072-7.412,8.565-6.563,7.539,1.425,14.544,6.547,19.655,12.052,6.3,6.781,10.814,15.034,14.462,23.539,2.011,4.687,3.729,10.281,1.138,14.673-7.508-3.225-12.356-10.486-16.65-17.438s-8.83-14.325-16.1-18.056c-2.116-1.085-4.4-1.823-6.468-3A9.226,9.226,0,0,1,99.243,254.57Z" transform="translate(-35.247 -229.923)" fill="#d93d2a"/>
          <path id="Path_619" data-name="Path 619" d="M90.07,264.44c9.779,16.3,34.542,38.09,55.1,32.7-4.341-6.54-13.1-9.862-18.817-15.189-7.155-6.662-15.69-14.8-17.959-24.71-.777-3.394-.223-7.273,2.2-9.771a39.3,39.3,0,0,0-15.6,2.7c-3.1,1.22-6.351,3.22-7.078,6.472C87.319,259.344,88.648,262.07,90.07,264.44Z" transform="translate(-37.474 -229.993)" fill="#f04832"/>
          <path id="Path_620" data-name="Path 620" d="M160.239,295.735a43.223,43.223,0,0,0-13.586-1.974c-2.237.031-7.152-.121-3.383-4.3a8.9,8.9,0,0,1,3.368-2.081c12.15-4.942,28.25-3.252,39.494,3.419a40.843,40.843,0,0,1,19.559,35.894c-.189,5.056-1.337,10.046-1.418,15.1s1.094,10.464,4.748,13.963a19.966,19.966,0,0,1-15.558-13.043q.277,7.751.553,15.5c-6.435-.3-11.576-5.959-13.52-12.1s-1.423-12.745-1.171-19.182.143-13.182-2.872-18.875C173.194,301.905,166.886,297.818,160.239,295.735Z" transform="translate(-26.72 -222.627)" fill="#bf2525"/>
          <path id="Path_621" data-name="Path 621" d="M161.254,293.013a43.226,43.226,0,0,0-13.7-.954c-2.228.2-7.139.415-3.694-4.036a8.9,8.9,0,0,1,3.2-2.327c11.747-5.837,27.928-5.356,39.64.456a40.844,40.844,0,0,1,22.187,34.332c.189,5.056-.581,10.118-.285,15.168s1.874,10.352,5.779,13.569A19.968,19.968,0,0,1,197.9,337.378q.856,7.708,1.711,15.418c-6.439.181-11.989-5.075-14.387-11.054s-2.372-12.6-2.6-19.04-.844-13.156-4.275-18.608C174.633,298.2,168.038,294.595,161.254,293.013Z" transform="translate(-26.565 -223.218)" fill="#f04832"/>
          <path id="Path_622" data-name="Path 622" d="M137.6,290.541a52.549,52.549,0,0,1,23.1-10.185c.586-.3,1.166-.621,1.727-.983a29.963,29.963,0,0,0,4.981-4.3c.536-.543,1.55.181,1.086.837a20.372,20.372,0,0,1-3.757,3.971,29.247,29.247,0,0,1,16.284,3.27c.765.428.251,1.757-.609,1.447a35.939,35.939,0,0,0-22.436-1.152,54.521,54.521,0,0,0-10.6,4.239c-2.916,1.513-5.611,3.632-8.753,4.621C137.671,292.609,136.75,291.208,137.6,290.541Z" transform="translate(-27.64 -224.542)" fill="#d93d2a"/>
          <path id="Path_623" data-name="Path 623" d="M117.053,285.5c3.746.424,7.4,1.576,11.1,2.3,4.1.806,8.226,1.345,12.355,1.938.905.131.7,1.66-.217,1.6-7.657-.5-16.531-1.414-23.594-4.522A.714.714,0,0,1,117.053,285.5Z" transform="translate(-31.795 -222.433)" fill="#bf2525"/>
          <path id="Path_624" data-name="Path 624" d="M144.3,332.669a3.328,3.328,0,0,0-1.818.427,2.615,2.615,0,0,0,0,4.5,3.349,3.349,0,0,0,1.818.427,2.676,2.676,0,0,0,0-5.351Z" transform="translate(-26.858 -213.064)" fill="#b4d66d"/>
          <path id="Path_625" data-name="Path 625" d="M158.5,353.174a2.567,2.567,0,0,0-2.536,2.538l.02.252a2.516,2.516,0,1,0,5.032,0l.02-.252A2.548,2.548,0,0,0,158.5,353.174Z" transform="translate(-23.925 -208.986)" fill="#b4d66d"/>
          <path id="Path_626" data-name="Path 626" d="M145.353,378.7c-2.485,0-2.49,3.862,0,3.862S147.843,378.7,145.353,378.7Z" transform="translate(-26.403 -203.914)" fill="#b4d66d"/>
          <path id="Path_627" data-name="Path 627" d="M160.635,392.66c-3.648,0-3.655,5.67,0,5.67S164.29,392.66,160.635,392.66Z" transform="translate(-23.54 -201.14)" fill="#b4d66d"/>
          <path id="Path_628" data-name="Path 628" d="M206.556,385.78l-.23-.369a2.33,2.33,0,0,0-3.976,0l-.23.369a2.569,2.569,0,1,0,4.436,0Z" transform="translate(-14.824 -202.802)" fill="#b4d66d"/>
          <path id="Path_629" data-name="Path 629" d="M215.638,362.38c-3.01,0-3.015,4.677,0,4.677S218.652,362.38,215.638,362.38Z" transform="translate(-12.515 -207.156)" fill="#b4d66d"/>
          <path id="Path_630" data-name="Path 630" d="M205.282,352.171l.095.062c-1.241-1.509-3.69-.215-3.69,1.528s2.455,3.032,3.69,1.53l-.095.062A1.859,1.859,0,0,0,205.282,352.171Z" transform="translate(-14.838 -209.305)" fill="#b4d66d"/>
          <path id="Path_631" data-name="Path 631" d="M217.266,320.613c-2.576,0-2.581,4,0,4S219.846,320.613,217.266,320.613Z" transform="translate(-12.127 -215.456)" fill="#b4d66d"/>
          <path id="Path_632" data-name="Path 632" d="M207.123,314.227a1.406,1.406,0,0,0-2.57,0,1.489,1.489,0,1,0,2.57,0Z" transform="translate(-14.308 -216.891)" fill="#b4d66d"/>
          <path id="Path_633" data-name="Path 633" d="M102.361,323.3a2.337,2.337,0,0,0-4.674,0,2.291,2.291,0,0,0,.411,1.629,2.262,2.262,0,0,0,3.85,0A2.3,2.3,0,0,0,102.361,323.3Z" transform="translate(-35.508 -215.386)" fill="#b4d66d"/>
          <path id="Path_634" data-name="Path 634" d="M110.952,343.82c-3.1,0-3.107,4.819,0,4.819S114.058,343.82,110.952,343.82Z" transform="translate(-33.331 -210.844)" fill="#b4d66d"/>
          <path id="Path_635" data-name="Path 635" d="M109.676,370.8c-2.987,0-2.992,4.643,0,4.643S112.668,370.8,109.676,370.8Z" transform="translate(-33.567 -205.482)" fill="#b4d66d"/>
          <path id="Path_636" data-name="Path 636" d="M122.434,401.358a2.981,2.981,0,0,0-.917-1.458,1.914,1.914,0,0,0-2.631,0,2.979,2.979,0,0,0-.916,1.458,2.315,2.315,0,1,0,4.464,0Z" transform="translate(-31.493 -199.805)" fill="#b4d66d"/>
          <path id="Path_637" data-name="Path 637" d="M81.869,379.279l-.05-.237a2.108,2.108,0,0,0-4.034,0l-.05.237a2.144,2.144,0,1,0,4.134,0Z" transform="translate(-39.479 -204.143)" fill="#b4d66d"/>
          <path id="Path_638" data-name="Path 638" d="M63.4,321.321c-2.782,0-2.787,4.324,0,4.324S66.185,321.321,63.4,321.321Z" transform="translate(-42.732 -215.315)" fill="#b4d66d"/>
          <path id="Path_639" data-name="Path 639" d="M158.458,314.656l-.252-.013c-2.708-.139-2.713,4.346,0,4.207l.252-.013A2.092,2.092,0,0,0,158.458,314.656Z" transform="translate(-23.882 -216.643)" fill="#b4d66d"/>
          <path id="Path_640" data-name="Path 640" d="M124.421,300.511a2.41,2.41,0,1,0,2.409,2.409A2.438,2.438,0,0,0,124.421,300.511Z" transform="translate(-30.671 -219.45)" fill="#b4d66d"/>
          <path id="Path_641" data-name="Path 641" d="M144.45,297.451a1.542,1.542,0,0,0,0,3.083A1.542,1.542,0,0,0,144.45,297.451Z" transform="translate(-26.508 -220.058)" fill="#b4d66d"/>
          <path id="Path_642" data-name="Path 642" d="M84.339,287.2l-.078-.231a2.028,2.028,0,0,0-3.875,0l-.079.231a2.091,2.091,0,1,0,4.032,0Z" transform="translate(-38.977 -222.426)" fill="#b4d66d"/>
          <path id="Path_643" data-name="Path 643" d="M97.441,280.562l-.191-.105a2.091,2.091,0,1,0,0,3.611l.191-.1A1.985,1.985,0,0,0,97.441,280.562Z" transform="translate(-36.216 -223.488)" fill="#b4d66d"/>
          <path id="Path_644" data-name="Path 644" d="M192.519,284.588a2.046,2.046,0,0,0-1.771-1.016l-.3,0a2.049,2.049,0,0,0,0,4.095l.3,0a2.046,2.046,0,0,0,1.771-1.017A1.988,1.988,0,0,0,192.519,284.588Z" transform="translate(-17.465 -222.816)" fill="#b4d66d"/>
          <path id="Path_645" data-name="Path 645" d="M208.587,288.328c-.012-.091-.037-.282-.085-.626a.255.255,0,0,0-.012-.026,2.4,2.4,0,0,0-3-1.923c-.416.135-.682.464-1.06.617q.527-.426,0-.014a1.3,1.3,0,0,0-.465.465,3.07,3.07,0,0,0-.448,2.6,2.615,2.615,0,0,0,3.2,1.82A2.651,2.651,0,0,0,208.587,288.328Z" transform="translate(-14.493 -222.403)" fill="#b4d66d"/>
        </g>
        <g id="Group_225" data-name="Group 225" transform="translate(163.499 237.195)">
          <path id="Path_646" data-name="Path 646" d="M201.411,446.782l-18.282-90.92,81.277,17.912-.759,86.985Z" transform="translate(-182.025 -309.02)" fill="#d6c48b"/>
          <path id="Path_647" data-name="Path 647" d="M182.208,359.217l65.406-21.4,73.517,16.72-56.1,23.8Z" transform="translate(-182.208 -312.605)" fill="#ece1c3"/>
          <path id="Path_648" data-name="Path 648" d="M212.711,452.6c-3.441-29.186-2.209-61.588-.42-90.922l-1.255.207A153.821,153.821,0,0,1,241.9,350.3l20.434,6.4a153.748,153.748,0,0,0-30.861,11.591l1.255-.207c-1.79,29.334-3.022,59.877.42,89.063Z" transform="translate(-176.58 -310.126)" fill="#ba8d1e"/>
          <path id="Path_649" data-name="Path 649" d="M272.984,356.652c-8.023.572-16.127,3.178-24.045.654-4.6-1.465-9.774-1.961-14.513-2.912-9.56-1.918-19.5-3.276-28.879-5.87,5.4-3.611,14.29-4.368,20.575-3.884A139.973,139.973,0,0,1,272.984,356.652Z" transform="translate(-177.57 -311.276)" fill="#d9a72a"/>
          <path id="Path_650" data-name="Path 650" d="M307.638,351.768l-9.8,92.177-48.7,18.181.759-86.985Z" transform="translate(-168.908 -309.833)" fill="#ece1c3"/>
          <path id="Path_651" data-name="Path 651" d="M249.741,357.34l21.286,9-1.378,87.885,13.128-4.9,4.535-89.3-28.349-7.257Z" transform="translate(-168.788 -309.635)" fill="#f0c04a"/>
          <path id="Path_652" data-name="Path 652" d="M229.553,325.627l3.064,19.984" transform="translate(-172.8 -315.028)" fill="#00b2c5"/>
          <path id="Path_653" data-name="Path 653" d="M245.683,319.9a24.8,24.8,0,0,1,3.093,7.169A195.8,195.8,0,0,1,256.26,364.5c-1.549.936-3.66.295-4.94-.985a12.316,12.316,0,0,1-2.534-4.75L235.9,322.634C233.4,315.608,242.374,315.186,245.683,319.9Z" transform="translate(-171.625 -316.785)" fill="#ba8d1e"/>
          <path id="Path_654" data-name="Path 654" d="M225.524,332.312c-.881-4.108-.191-10.915,3.98-13.34,1.741-1.013,4.954-1.353,6.968-1.778,1.347-.283,7.6.312,8.243-.266-7.267,6.57-2.65,18.069-.15,25.8s6.96,14.35,10.055,21.73c-5.057,2.088-14.8-7.837-17.854-11.062A44.523,44.523,0,0,1,225.524,332.312Z" transform="translate(-173.667 -316.756)" fill="#f0c04a"/>
          <path id="Path_655" data-name="Path 655" d="M281.4,331.856c1.072-3.875-2.83-5.152-5.953-4.561-5.24.99-10.109,4.55-13.663,8.377a56.391,56.391,0,0,0-10.052,16.361c-1.4,3.258-2.593,7.147-.791,10.2,5.219-2.242,8.589-7.289,11.574-12.121s6.137-9.956,11.19-12.55c1.471-.754,3.06-1.267,4.5-2.085A6.418,6.418,0,0,0,281.4,331.856Z" transform="translate(-168.731 -314.724)" fill="#ba8d1e"/>
          <path id="Path_656" data-name="Path 656" d="M289.157,338.716c-6.8,11.327-24.009,26.476-38.3,22.734,3.016-4.547,9.1-6.857,13.079-10.558,4.973-4.631,10.906-10.29,12.482-17.175a7.427,7.427,0,0,0-1.531-6.792A27.315,27.315,0,0,1,285.73,328.8c2.155.847,4.415,2.238,4.921,4.5C291.07,335.175,290.146,337.069,289.157,338.716Z" transform="translate(-168.566 -314.773)" fill="#f0c04a"/>
          <path id="Path_657" data-name="Path 657" d="M241.5,360.469a30.053,30.053,0,0,1,9.445-1.372c1.555.023,4.97-.084,2.351-2.99a6.185,6.185,0,0,0-2.341-1.447c-8.446-3.434-19.636-2.261-27.452,2.377a28.386,28.386,0,0,0-13.6,24.949c.132,3.515.929,6.984.987,10.5s-.761,7.273-3.3,9.706a13.882,13.882,0,0,0,10.815-9.067l-.385,10.776c4.472-.21,8.047-4.142,9.4-8.41s.989-8.86.815-13.333-.1-9.163,1.995-13.12C232.5,364.758,236.884,361.918,241.5,360.469Z" transform="translate(-177.163 -309.653)" fill="#ba8d1e"/>
          <path id="Path_658" data-name="Path 658" d="M241.327,358.578a30.025,30.025,0,0,1,9.52-.663c1.549.138,4.963.288,2.568-2.806a6.183,6.183,0,0,0-2.226-1.617c-8.166-4.058-19.412-3.723-27.552.316a28.388,28.388,0,0,0-15.423,23.864c-.132,3.515.4,7.033.2,10.544s-1.3,7.195-4.017,9.431a13.88,13.88,0,0,0,11.462-8.233q-.6,5.358-1.189,10.716c4.476.126,8.333-3.528,10-7.684s1.648-8.76,1.809-13.235.586-9.144,2.97-12.933C232.028,362.181,236.613,359.677,241.327,358.578Z" transform="translate(-177.799 -310.064)" fill="#d9a72a"/>
          <path id="Path_659" data-name="Path 659" d="M254.593,356.859a36.526,36.526,0,0,0-16.059-7.08c-.408-.212-.812-.432-1.2-.683a20.719,20.719,0,0,1-3.463-2.987c-.373-.376-1.076.126-.754.583a14.165,14.165,0,0,0,2.611,2.761,20.325,20.325,0,0,0-11.319,2.273c-.531.3-.174,1.221.424,1.006a24.966,24.966,0,0,1,15.6-.8,37.844,37.844,0,0,1,7.366,2.945c2.028,1.052,3.9,2.524,6.085,3.213C254.541,358.3,255.182,357.323,254.593,356.859Z" transform="translate(-173.874 -310.984)" fill="#d9a72a"/>
          <path id="Path_660" data-name="Path 660" d="M266.638,353.357c-2.6.3-5.144,1.1-7.715,1.6-2.846.559-5.717.934-8.586,1.347-.631.09-.484,1.153.15,1.112,5.323-.344,11.491-.983,16.4-3.143A.5.5,0,0,0,266.638,353.357Z" transform="translate(-168.751 -309.518)" fill="#f0c04a"/>
          <path id="Path_661" data-name="Path 661" d="M321.515,447.717h-.468" transform="translate(-154.619 -290.768)" fill="#ece1c3"/>
        </g>
      </g>
      <path id="Path_667" data-name="Path 667" d="M172.094,242.759a1.524,1.524,0,0,0-2.98.4c-.18,11.09-1.478,20.352-8.23,29.622-.628.862.708,1.8,1.434,1.106C170.215,266.365,175.439,253.684,172.094,242.759Z" transform="translate(22.833 24.397)" fill="#f77261"/>
      <path id="Path_668" data-name="Path 668" d="M166.05,238.434a2.269,2.269,0,0,0-4.343,0,3.128,3.128,0,0,0-.1,1,2.275,2.275,0,0,0,4.55,0A3.1,3.1,0,0,0,166.05,238.434Z" transform="translate(23.007 23.431)" fill="#f77261"/>
      <path id="Path_669" data-name="Path 669" d="M173.8,287.87a1.4,1.4,0,0,0-1.072,2.542c4.894,3.36,9.531,6.412,12.8,11.533,3.02,4.736,3.772,9.941,5.427,15.172a1.19,1.19,0,0,0,2.275,0C196.139,305.479,185.058,290.416,173.8,287.87Z" transform="translate(25.091 33.566)" fill="#f77261"/>
      <path id="Path_670" data-name="Path 670" d="M113.778,276.563c-2.556-3.43-5.485-6.475-7.563-10.257-2.062-3.754-2.475-8.271-4.625-11.86a1.72,1.72,0,0,0-3.107.405c-.87,4.381,1.526,9.3,3.566,13.1,2.245,4.188,5.349,8.405,9.519,10.818C112.87,279.526,114.788,277.919,113.778,276.563Z" transform="translate(10.43 26.772)" fill="#f77261"/>
    </g>
  </g>
</svg>
