<svg xmlns="http://www.w3.org/2000/svg" width="91.544" height="87.488" viewBox="0 0 91.544 87.488">
  <g id="Layer_2_00000081617581296249403410000005570550505570376068_" transform="translate(0 -0.006)">
    <g id="Layer_1-2" transform="translate(0 0.006)">
      <path id="Path_740" data-name="Path 740" d="M88.865,49.817c-1.852-1.12-6.41-2.006-10.217-1.993a66.361,66.361,0,0,0,9.8-18.094,3.956,3.956,0,0,0-2.233-4.889c-3.046-1.273-9.791-1.815-15.967-2.035,4.4-2.6,8.511-9.552,8.561-9.648,2.511-4.857-.547-7.22-1.187-7.644a5.131,5.131,0,0,0-5.656.052,10.766,10.766,0,0,0-1.973,1.624,5.011,5.011,0,0,0-8.18-5.317c-2.193,1.943-3.648,6.331-2.937,8.859a4.462,4.462,0,0,0,3.507,3.24h0a4.378,4.378,0,0,0,.77.069,4.524,4.524,0,0,0,2.061-.514c-1.354,2.336-2.285,4.659-2.155,6.212A4.451,4.451,0,0,0,64.5,22.678c-.982-.009-1.9-.013-2.721-.012C59.67,11.39,50.917,4.441,49.409,3.316c-.588-.541-.94-.828-.94-.828a3.975,3.975,0,0,0-5-.019,39.751,39.751,0,0,0-11.693,18c-.069-1.405-.925-2.923-2.791-5.006a4.456,4.456,0,0,0,1.382.252,4.221,4.221,0,0,0,2.574-.868c3.567-2.723.734-9.377.064-10.488a4.959,4.959,0,0,0-9.429,2.267,10.522,10.522,0,0,0,1.4,4.872A33.891,33.891,0,0,0,19,7.078c-5.032-2.709-7.451.024-8.075.927a5.266,5.266,0,0,0,.007,5.816c1.821,3.206,8.724,8.452,13.535,10.367-5.592.405-12.318,1.462-16.952,4.125A3.955,3.955,0,0,0,5.7,32.875c2.054,6.879,8.643,14.17,13.164,18.561-4.35-2.4-14.164.488-14.273.532C1.076,53.369.451,56.1.985,58.009v0a5,5,0,0,0,4.229,3.538,9.305,9.305,0,0,0,1.616.119c3.4,0,9.055-1.145,11.932-3.037a46.682,46.682,0,0,0-1.1,4.74,4.167,4.167,0,0,0-1.184-1.322C13.015,59.536,8.033,63.69,7.2,64.613A4.831,4.831,0,0,0,6.885,71.3a4.7,4.7,0,0,0,3.57,1.593,5.473,5.473,0,0,0,1.486-.21,10.318,10.318,0,0,0,5.075-3.95,48.173,48.173,0,0,0,.271,9.038l.032.328c.055.57.111,1.14.2,1.726A3.956,3.956,0,0,0,22.6,83.031,73.588,73.588,0,0,0,40.935,74a46.477,46.477,0,0,0-.389,7.724c.552,5.275,4.025,5.7,5.078,5.708h.02a5.024,5.024,0,0,0,4.572-3.1c1.14-2.328,1.6-7.5,1.232-11.713.99.724,2.008,1.409,3.039,2.054-.114.071-.23.139-.339.222h0c-3.4,2.6-.856,8.559-.214,9.625a5,5,0,0,0,4.315,2.664,4.773,4.773,0,0,0,1.991-.439A4.843,4.843,0,0,0,63.022,82.3a8.7,8.7,0,0,0-.816-3.507,79.8,79.8,0,0,0,11.221,4.166,3.957,3.957,0,0,0,4.956-3.3,49.243,49.243,0,0,0-.658-15.653,5.319,5.319,0,0,0,.85,1.125,9.766,9.766,0,0,0,6.291,2.445,5.444,5.444,0,0,0,1.744-.261,4.219,4.219,0,0,0,2.881-3.476c.276-2.228-1.278-3.9-2.93-5,4.275-.468,4.8-3.672,4.866-4.349A4.931,4.931,0,0,0,88.865,49.817ZM63.809,5.966l.028-.155c.021,0,.039.011.059.015C63.868,5.874,63.837,5.917,63.809,5.966ZM58.9,81.214c-.015-.05-.025-.1-.041-.149l.09.118c-.016.012-.032.02-.048.031Z" transform="translate(0.106 0.057)" fill="#231f20" opacity="0.5"/>
      <path id="Path_741" data-name="Path 741" d="M88.048,49.329c-1.852-1.12-6.41-2.006-10.217-1.993a66.361,66.361,0,0,0,9.8-18.094A3.956,3.956,0,0,0,85.4,24.354c-3.046-1.273-9.791-1.815-15.967-2.035,4.4-2.6,8.511-9.552,8.561-9.648,2.511-4.857-.547-7.22-1.187-7.644a5.131,5.131,0,0,0-5.656.052A10.766,10.766,0,0,0,69.175,6.7,5.045,5.045,0,0,0,66.4.385a5.074,5.074,0,0,0-5.4,1C58.8,3.33,57.346,7.718,58.058,10.246a4.462,4.462,0,0,0,3.507,3.24h0a4.377,4.377,0,0,0,.77.069A4.524,4.524,0,0,0,64.4,13.04c-1.354,2.336-2.285,4.659-2.155,6.212a4.451,4.451,0,0,0,1.437,2.938c-.982-.009-1.9-.013-2.721-.012C58.853,10.9,50.1,3.952,48.592,2.828,48,2.287,47.651,2,47.651,2a3.975,3.975,0,0,0-5-.019,39.75,39.75,0,0,0-11.693,18c-.069-1.405-.925-2.923-2.791-5.006a4.456,4.456,0,0,0,1.382.252,4.221,4.221,0,0,0,2.574-.868c3.567-2.723.734-9.377.064-10.488a4.959,4.959,0,0,0-9.429,2.267,10.522,10.522,0,0,0,1.4,4.872A33.891,33.891,0,0,0,18.187,6.59c-5.032-2.709-7.451.024-8.075.927a5.266,5.266,0,0,0,.007,5.816C11.94,16.54,18.843,21.786,23.654,23.7c-5.592.405-12.318,1.462-16.952,4.125a3.955,3.955,0,0,0-1.82,4.562c2.054,6.879,8.643,14.17,13.164,18.561-4.35-2.4-14.164.488-14.273.532-3.515,1.4-4.14,4.13-3.607,6.041v0A5,5,0,0,0,4.4,61.06a9.306,9.306,0,0,0,1.616.119c3.4,0,9.055-1.145,11.932-3.037a46.686,46.686,0,0,0-1.1,4.74,4.167,4.167,0,0,0-1.184-1.322C12.2,59.048,7.215,63.2,6.381,64.125a4.831,4.831,0,0,0-.313,6.683A4.7,4.7,0,0,0,9.638,72.4a5.473,5.473,0,0,0,1.486-.21,10.318,10.318,0,0,0,5.075-3.95,48.173,48.173,0,0,0,.271,9.038l.032.328c.055.57.111,1.14.2,1.726a3.956,3.956,0,0,0,5.086,3.211,73.586,73.586,0,0,0,18.334-9.032,46.479,46.479,0,0,0-.389,7.724c.552,5.275,4.025,5.7,5.078,5.708h.02a5.024,5.024,0,0,0,4.572-3.1c1.14-2.328,1.6-7.5,1.232-11.713.99.724,2.008,1.409,3.039,2.054-.114.071-.23.139-.339.222h0c-3.4,2.6-.856,8.559-.214,9.625a5,5,0,0,0,4.315,2.664,4.773,4.773,0,0,0,1.991-.439A4.843,4.843,0,0,0,62.2,81.812a8.7,8.7,0,0,0-.816-3.507,79.794,79.794,0,0,0,11.22,4.166,3.957,3.957,0,0,0,4.956-3.3,49.243,49.243,0,0,0-.658-15.653,5.319,5.319,0,0,0,.85,1.125,9.766,9.766,0,0,0,6.291,2.445,5.444,5.444,0,0,0,1.744-.261,4.219,4.219,0,0,0,2.881-3.476c.276-2.228-1.278-3.9-2.93-5,4.275-.468,4.8-3.672,4.866-4.349A4.931,4.931,0,0,0,88.048,49.329ZM62.992,5.478l.028-.155c.021,0,.039.011.059.015C63.05,5.386,63.02,5.429,62.992,5.478Zm-4.91,75.248c-.015-.05-.025-.1-.041-.149l.09.118c-.016.012-.032.02-.048.031Z" transform="translate(0 -0.006)" fill="#fff"/>
      <path id="Path_742" data-name="Path 742" d="M72.535,77.984S52.77,72.632,45.085,61.631C37.422,72.546,19.505,78.1,19.505,78.1c-2.286-15.669,5.164-26.143,5.164-26.143S11.336,40.853,8.524,31.436C16.6,26.8,33.367,27.68,33.367,27.68,34.5,13.718,44.993,5.238,44.993,5.238S55.816,12.9,56.329,25.494c0,0,21.2-.343,26.435,1.842,0,0-4.838,14.67-15.018,22.965C67.746,50.3,74.374,64.189,72.535,77.984Z" transform="translate(1.11 0.676)" fill="#22093a" stroke="#22093a" stroke-linecap="round" stroke-linejoin="round" stroke-width="1"/>
      <path id="Path_743" data-name="Path 743" d="M71.686,77.233S52.927,71.969,45.242,60.968C37.579,71.883,19.517,77.275,19.517,77.275,17.231,61.606,23.82,51.2,23.82,51.2S10.487,40.1,7.675,30.685c8.071-4.637,24.843-3.756,24.843-3.756C33.651,12.967,44.144,4.487,44.144,4.487S55.293,13.6,55.806,26.193a169.436,169.436,0,0,1,26.108,1.02S77.273,42.066,67.092,50.36C67.092,50.36,73.525,63.438,71.686,77.233Z" transform="translate(0.999 0.578)" fill="#fcc707" stroke="#22093a" stroke-linecap="round" stroke-linejoin="round" stroke-width="1"/>
      <path id="Path_744" data-name="Path 744" d="M30.131,33.068s-1.219,6.551,2.59,6.855,3.5-6.855,3.5-6.855" transform="translate(3.899 4.299)" fill="none" stroke="#22093a" stroke-linecap="round" stroke-linejoin="round" stroke-width="1"/>
      <path id="Path_745" data-name="Path 745" d="M46.151,33.155s-.262,6.094,2.916,6.094,3.178-6.855,3.178-6.855" transform="translate(6.008 4.211)" fill="none" stroke="#22093a" stroke-linecap="round" stroke-linejoin="round" stroke-width="1"/>
      <path id="Path_746" data-name="Path 746" d="M39.292,38.138s-1.076,4.723,2.626,4.723c2.286,0,2.249-4.723,2.249-4.723" transform="translate(5.097 4.959)" fill="none" stroke="#22093a" stroke-linecap="round" stroke-linejoin="round" stroke-width="1"/>
      <circle id="Ellipse_61" data-name="Ellipse 61" cx="4.327" cy="4.327" r="4.327" transform="translate(55.159 44.213)" fill="#d92525"/>
      <circle id="Ellipse_62" data-name="Ellipse 62" cx="4.98" cy="4.98" r="4.98" transform="translate(28.672 45.131)" fill="#d92525"/>
      <path id="Path_747" data-name="Path 747" d="M66.534,7.158c2.017,1.341-6.677,10.564-7.621,10.2C57.688,16.887,64.517,5.818,66.534,7.158Z" transform="translate(7.651 0.911)" fill="#d92525" stroke="#22093a" stroke-linecap="round" stroke-linejoin="round" stroke-width="1"/>
      <path id="Path_748" data-name="Path 748" d="M3.523,50.252c-.638-2.284,11.7-2.99,12.165-2.107C16.294,49.291,4.161,52.536,3.523,50.252Z" transform="translate(0.456 6.214)" fill="#d92525" stroke="#22093a" stroke-linecap="round" stroke-linejoin="round" stroke-width="1"/>
      <path id="Path_749" data-name="Path 749" d="M11.85,8.7C13.707,6,25.958,17.958,25.446,19.224,24.78,20.867,9.993,11.388,11.85,8.7Z" transform="translate(1.522 1.074)" fill="#d92525" stroke="#22093a" stroke-linecap="round" stroke-linejoin="round" stroke-width="1"/>
      <path id="Path_750" data-name="Path 750" d="M78.057,47.743c-.213,2.277-11.77-.83-11.889-1.778C66.012,44.736,78.27,45.467,78.057,47.743Z" transform="translate(8.614 5.901)" fill="#d92525" stroke="#22093a" stroke-linecap="round" stroke-linejoin="round" stroke-width="1"/>
      <path id="Path_751" data-name="Path 751" d="M39.805,75.08c-2.712-.013-.25-13.989.856-14.229C42.1,60.538,42.517,75.093,39.805,75.08Z" transform="translate(5.022 7.915)" fill="#d92525" stroke="#22093a" stroke-linecap="round" stroke-linejoin="round" stroke-width="1"/>
      <path id="Path_752" data-name="Path 752" d="M24.223,4.538c1.938-.9,3.136,5.569,2.427,6.11C25.73,11.349,22.285,5.433,24.223,4.538Z" transform="translate(3.078 0.573)" fill="#d92525" stroke="#22093a" stroke-linecap="round" stroke-linejoin="round" stroke-width="1"/>
      <path id="Path_753" data-name="Path 753" d="M51.365,73.749c-1.622.75-2.625-4.662-2.032-5.115C50.1,68.047,52.987,73,51.365,73.749Z" transform="translate(6.4 8.923)" fill="#d92525" stroke="#22093a" stroke-linecap="round" stroke-linejoin="round" stroke-width="1"/>
      <path id="Path_754" data-name="Path 754" d="M57.75,3.548c1.649.688-1.66,5.087-2.395,4.956C54.4,8.334,56.1,2.86,57.75,3.548Z" transform="translate(7.171 0.448)" fill="#d92525" stroke="#22093a" stroke-linecap="round" stroke-linejoin="round" stroke-width="1"/>
      <path id="Path_755" data-name="Path 755" d="M8.009,60.741c-1.186-1.337,3.707-3.858,4.312-3.42C13.106,57.888,9.195,62.078,8.009,60.741Z" transform="translate(1.019 7.449)" fill="#d92525" stroke="#22093a" stroke-linecap="round" stroke-linejoin="round" stroke-width="1"/>
      <path id="Path_756" data-name="Path 756" d="M71.054,54.036c.526-1.476,4.53,1.218,4.449,1.868C75.4,56.747,70.528,55.512,71.054,54.036Z" transform="translate(9.245 6.972)" fill="#d92525" stroke="#22093a" stroke-linecap="round" stroke-linejoin="round" stroke-width="1"/>
      <path id="Path_757" data-name="Path 757" d="M20.334,39.675c1,.984,1.789,1.77,1.789,1.77" transform="translate(2.647 5.159)" fill="none" stroke="#fff" stroke-linecap="round" stroke-linejoin="round" stroke-width="1"/>
      <path id="Path_758" data-name="Path 758" d="M11.688,29.065a55.149,55.149,0,0,0,6.617,8.887" transform="translate(1.522 3.778)" fill="none" stroke="#fff" stroke-linecap="round" stroke-linejoin="round" stroke-width="1"/>
      <path id="Path_759" data-name="Path 759" d="M36.461,11.909c.968-1.371,1.253-1.432,1.253-1.432" transform="translate(4.747 1.358)" fill="none" stroke="#fff" stroke-linecap="round" stroke-linejoin="round" stroke-width="1"/>
      <path id="Path_760" data-name="Path 760" d="M31.91,24.9A21.3,21.3,0,0,1,35.087,14.5" transform="translate(4.154 1.881)" fill="none" stroke="#fff" stroke-linecap="round" stroke-linejoin="round" stroke-width="1"/>
      <path id="Path_761" data-name="Path 761" d="M29.732,60.86c.413-.26.78-.506,1.086-.729" transform="translate(3.871 7.822)" fill="none" stroke="#fff" stroke-linecap="round" stroke-linejoin="round" stroke-width="1"/>
      <path id="Path_762" data-name="Path 762" d="M20.3,66.044a74.878,74.878,0,0,0,8.97-4.377" transform="translate(2.643 8.022)" fill="none" stroke="#fff" stroke-linecap="round" stroke-linejoin="round" stroke-width="1"/>
      <path id="Path_763" data-name="Path 763" d="M60.113,50.834a23.109,23.109,0,0,1,1.269,5.2" transform="translate(7.826 6.612)" fill="none" stroke="#fff" stroke-linecap="round" stroke-linejoin="round" stroke-width="1"/>
      <path id="Path_764" data-name="Path 764" d="M58.663,47.713c.184.328.4.72.621,1.173" transform="translate(7.637 6.205)" fill="none" stroke="#fff" stroke-linecap="round" stroke-linejoin="round" stroke-width="1"/>
      <path id="Path_765" data-name="Path 765" d="M41.765,9.3a19.662,19.662,0,0,1,3.863,5.872" transform="translate(5.437 1.204)" fill="none" stroke="#fff" stroke-linecap="round" stroke-linejoin="round" stroke-width="1"/>
      <path id="Path_766" data-name="Path 766" d="M64.843,26.328c.843.055,1.582.1,2.18.133" transform="translate(8.442 3.421)" fill="none" stroke="#fff" stroke-linecap="round" stroke-linejoin="round" stroke-width="1"/>
      <path id="Path_767" data-name="Path 767" d="M54.3,26.126a85.743,85.743,0,0,1,9.851.111" transform="translate(7.069 3.383)" fill="none" stroke="#fff" stroke-linecap="round" stroke-linejoin="round" stroke-width="1"/>
      <path id="Path_768" data-name="Path 768" d="M49.16,58.581A106.261,106.261,0,0,0,60.889,65.33" transform="translate(6.4 7.62)" fill="#22093a" stroke="#22093a" stroke-linecap="round" stroke-linejoin="round" stroke-width="1"/>
      <path id="Path_769" data-name="Path 769" d="M46.322,56.464c.447.375.933.757,1.45,1.143" transform="translate(6.031 7.345)" fill="#22093a" stroke="#22093a" stroke-linecap="round" stroke-linejoin="round" stroke-width="1"/>
      <path id="Path_770" data-name="Path 770" d="M62.519,40.109A40.727,40.727,0,0,0,66.939,34.4" transform="translate(8.139 4.472)" fill="#22093a" stroke="#22093a" stroke-linecap="round" stroke-linejoin="round" stroke-width="1"/>
    </g>
  </g>
</svg>
