<svg xmlns="http://www.w3.org/2000/svg" width="42.292" height="42.461" viewBox="0 0 42.292 42.461">
  <g id="_2560431_in_linked_media_network_social_icon" data-name="2560431_in_linked_media_network_social_icon" transform="translate(0.25 0.25)">
    <g id="Group_297" data-name="Group 297" transform="translate(0.5 0.5)">
      <path id="Path_688" data-name="Path 688" d="M34.694,41.461H7.268A6.765,6.765,0,0,1,.5,34.694V7.268A6.765,6.765,0,0,1,7.268.5H34.516a6.765,6.765,0,0,1,6.768,6.768V34.516A6.554,6.554,0,0,1,34.694,41.461ZM7.268,2.281A4.978,4.978,0,0,0,2.281,7.268V34.516A4.978,4.978,0,0,0,7.268,39.5H34.516A4.978,4.978,0,0,0,39.5,34.516V7.268a4.978,4.978,0,0,0-4.987-4.987H7.268Z" transform="translate(-0.5 -0.5)" fill="#b1b1b1" stroke="#b1b1b1" stroke-width="1.5"/>
    </g>
    <g id="LinkedIn_2_" transform="translate(7.624 7.268)">
      <g id="Group_298" data-name="Group 298" transform="translate(0.712 8.192)">
        <path id="Path_689" data-name="Path 689" d="M11.311,28.134H5.79a.841.841,0,0,1-.89-.89V9.79a.841.841,0,0,1,.89-.89h5.521a.841.841,0,0,1,.89.89V27.244A.841.841,0,0,1,11.311,28.134Zm-4.63-1.781h3.74V10.681H6.681Z" transform="translate(-4.9 -8.9)" fill="#b1b1b1"/>
      </g>
      <g id="Group_299" data-name="Group 299" transform="translate(6.233 8.014)">
        <path id="Path_690" data-name="Path 690" d="M27.59,28.212H21.357a.841.841,0,0,1-.89-.89v-7.48c0-1.959-.712-3.028-2.315-3.028a2.35,2.35,0,0,0-2.137,1.6v8.9a.841.841,0,0,1-.89.89H8.89c-.178,0-.534-.178-.712-.178S8,27.5,8,27.322V10.047a1.071,1.071,0,0,1,.178-.712,1.35,1.35,0,0,1,.712-.356h6.233a.841.841,0,0,1,.89.89v.356A8.4,8.4,0,0,1,20.645,8.8c3.74,0,7.836,2.315,7.836,8.727v9.617A1,1,0,0,1,27.59,28.212Zm-5.343-1.781H26.7V17.7c0-4.452-2.137-6.946-6.055-6.946-2.849,0-4.452,1.425-4.63,2.315a.865.865,0,0,1-1.069.534.815.815,0,0,1-.712-.89V10.937H9.781V26.609h4.452V19.486a4.931,4.931,0,0,1,.178-1.6,3.941,3.941,0,0,1,3.74-2.671c2.493,0,4.1,1.781,4.1,4.809Z" transform="translate(-8 -8.8)" fill="#b1b1b1"/>
      </g>
      <g id="Group_300" data-name="Group 300">
        <path id="Path_691" data-name="Path 691" d="M8.774,12.136h0c-2.493,0-4.274-1.6-4.274-3.918S6.281,4.3,8.774,4.3a4.038,4.038,0,0,1,4.274,3.918C13.048,10.533,11.268,12.136,8.774,12.136Zm0-6.055A2.265,2.265,0,0,0,6.281,8.218,2.108,2.108,0,0,0,8.6,10.355h0a2.265,2.265,0,0,0,2.493-2.137C11.268,6.971,10.2,6.081,8.774,6.081Z" transform="translate(-4.5 -4.3)" fill="#b1b1b1"/>
      </g>
    </g>
  </g>
</svg>
