<svg id="_10934642_recomendation_star_like_rating_top_icon" data-name="10934642_recomendation_star_like_rating_top_icon" xmlns="http://www.w3.org/2000/svg" width="78.457" height="92" viewBox="0 0 78.457 92">
  <path id="Path_734" data-name="Path 734" d="M340.668,360.491h10.238a1.465,1.465,0,0,0,1.527-1.387V333.359a1.465,1.465,0,0,0-1.527-1.386H340.668a1.465,1.465,0,0,0-1.527,1.386V359.1A1.465,1.465,0,0,0,340.668,360.491Z" transform="translate(-328.144 -272.322)" fill="#d92525" fill-rule="evenodd"/>
  <path id="Path_735" data-name="Path 735" d="M125.653,237.309c7.119-.691,10.286-12.783,6.665-18.111a6.031,6.031,0,0,0-7.152-2.034c0,3.51-.135,6.572-2.041,9.186-3.156,4.328-9.17,3.422-13.215,6.813-2.33,1.954-3.43,4.533-5.631,6.568-1.286,1.189-3.812,1.218-5.429,1.115v21.222c3.033-.2,5.7-.307,6.7,1.053,1.935,2.992,5.514,4.265,9.182,4.805,6.253.919,13.041.391,19.351.391,6.031.121,6.508-7.047,1.273-7.757h1.8c5.462,0,5.44-7.459-.038-7.743h.684a3.886,3.886,0,1,0,.171-7.754,3.886,3.886,0,1,0-.171-7.754Z" transform="translate(-74.562 -177.774)" fill="#fff584" fill-rule="evenodd"/>
  <path id="Path_736" data-name="Path 736" d="M187.614,8.737l-4.146,6.686-7.674,1.885a1.751,1.751,0,0,0-.919,2.831l5.1,6.031-.579,7.884A1.753,1.753,0,0,0,181.8,35.8l7.317-2.985,7.317,2.985a1.753,1.753,0,0,0,2.4-1.8l-.575-7.831,5.1-6.031a1.763,1.763,0,0,0-.962-2.841l-7.631-1.875L190.6,8.714a1.748,1.748,0,0,0-2.406-.569C188.105,8.2,187.614,8.737,187.614,8.737Z" transform="translate(-149.885 -6.468)" fill="#d92525"/>
  <path id="Path_737" data-name="Path 737" d="M352.914,77.716,349.759,82.8l-5.841,1.435a1.332,1.332,0,0,0-.7,2.154l3.879,4.592-.44,6a1.334,1.334,0,0,0,1.831,1.331l5.569-2.273,5.569,2.273a1.334,1.334,0,0,0,1.828-1.371l-.438-5.961,3.879-4.591a1.332,1.332,0,0,0-.732-2.162L358.356,82.8,355.19,77.7a1.33,1.33,0,0,0-1.831-.433C353.288,77.309,352.914,77.716,352.914,77.716Z" transform="translate(-341.599 -63.219)" fill="#d92525"/>
  <path id="Path_738" data-name="Path 738" d="M54.927,77.716,51.772,82.8,45.93,84.239a1.333,1.333,0,0,0-.7,2.154l3.879,4.592-.441,6A1.334,1.334,0,0,0,50.5,98.317l5.57-2.273,5.57,2.273a1.334,1.334,0,0,0,1.828-1.371l-.438-5.961,3.879-4.591a1.332,1.332,0,0,0-.732-2.162L60.369,82.8,57.2,77.7a1.33,1.33,0,0,0-1.831-.433C55.3,77.309,54.927,77.716,54.927,77.716Z" transform="translate(9.933 -63.219)" fill="#d92525"/>
  <path id="Path_739" data-name="Path 739" d="M47.891,13.811l-2.872,4.633-5.327,1.309a2.647,2.647,0,0,0-1.384,4.266L41.841,28.2l-.4,5.474a2.659,2.659,0,0,0,3.625,2.634l5.079-2.072,5.079,2.073a2.657,2.657,0,0,0,3.62-2.674l-.4-5.434,3.534-4.182a2.625,2.625,0,0,0-1.453-4.284l-5.259-1.291-2.884-4.65a2.621,2.621,0,0,0-4.494.017Zm2.318,75.666H60.447a2.918,2.918,0,0,0,1.958-.749,2.62,2.62,0,0,0,.878-1.945V85.525a18.641,18.641,0,0,1,2.677.01,2.447,2.447,0,0,1,1.66.579,10.623,10.623,0,0,0,4.437,3.736,19.814,19.814,0,0,0,5.614,1.6,87.577,87.577,0,0,0,14.465.476c1.6-.036,3.192-.07,5.075-.07a6.082,6.082,0,0,0,5.43-2.643,5.025,5.025,0,0,0-.127-5.507,5.122,5.122,0,0,0,1.713-8.286,5.2,5.2,0,0,0,.5-8.127,4.975,4.975,0,0,0,1.316-1.8,5.275,5.275,0,0,0-.731-5.337,5.433,5.433,0,0,0-4.381-1.924H94.114a13.906,13.906,0,0,0,3-4.859,17.526,17.526,0,0,0,1.067-7.675,10.74,10.74,0,0,0-1.663-5,7.192,7.192,0,0,0-3.945-2.777,7.273,7.273,0,0,0-4.777.267,1.153,1.153,0,0,0-.813,1.206,27.421,27.421,0,0,1-.291,4.7,8.716,8.716,0,0,1-1.5,3.715c-1.487,2.041-3.912,2.769-6.387,3.513A17.532,17.532,0,0,0,72.2,54.388a19.767,19.767,0,0,0-3.228,3.687A20.085,20.085,0,0,1,66.519,61a3.622,3.622,0,0,1-1.89.705,10.6,10.6,0,0,1-1.346.1v-.766a2.621,2.621,0,0,0-.878-1.946,2.916,2.916,0,0,0-1.958-.749H50.209a2.916,2.916,0,0,0-1.958.749,2.621,2.621,0,0,0-.878,1.946V86.782a2.621,2.621,0,0,0,.878,1.945,2.918,2.918,0,0,0,1.958.749ZM63.282,82.91V64.416A13.041,13.041,0,0,0,65,64.293a6.055,6.055,0,0,0,3.29-1.379,21.8,21.8,0,0,0,2.787-3.3,17.709,17.709,0,0,1,2.8-3.226,15.533,15.533,0,0,1,5.683-2.565c2.9-.871,5.734-1.722,7.747-4.484a11.244,11.244,0,0,0,1.969-4.8,25.8,25.8,0,0,0,.317-4.2,4.721,4.721,0,0,1,2.272.084,4.541,4.541,0,0,1,2.5,1.724,8.163,8.163,0,0,1,1.223,3.783,14.87,14.87,0,0,1-.914,6.51A10.112,10.112,0,0,1,91.189,57.3a5.439,5.439,0,0,1-2.441.932,1.308,1.308,0,0,0,.029,2.617h12.148c3.727,0,3.949,4.926.217,5.137H88.953a1.309,1.309,0,0,0,0,2.617h12.188c3.716.21,3.5,5.137-.217,5.137H88.848a1.309,1.309,0,0,0,0,2.618h11.409c3.606.253,3.8,5.126.022,5.126H88.3a1.308,1.308,0,1,0,0,2.617H98.412c3.122.5,3.1,4.2.232,4.986a5.321,5.321,0,0,1-1.434.154c-6.382,0-12.815.558-19.161-.375a17.254,17.254,0,0,1-4.868-1.37,8.628,8.628,0,0,1-3.45-2.913,4.683,4.683,0,0,0-3.515-1.638,20.254,20.254,0,0,0-2.932-.028Zm-2.835,3.95H50.209a.3.3,0,0,1-.2-.064c-.012-.011-.019-.011-.019-.014V61.038s.008,0,.019-.013a.3.3,0,0,1,.2-.065H60.447a.3.3,0,0,1,.2.065c.011.01.018.011.018.013V86.782s-.008,0-.018.014a.3.3,0,0,1-.2.064Zm40.989-73.048-2.872,4.633-5.328,1.309a2.657,2.657,0,0,0-1.384,4.266L95.386,28.2l-.4,5.474a2.662,2.662,0,0,0,3.625,2.634l5.079-2.072,5.079,2.072c1.756.878,3.778-.871,3.621-2.674l-.4-5.434,3.534-4.182a2.655,2.655,0,0,0-1.453-4.284l-5.259-1.291-2.883-4.65c-1.078-1.747-3.232-1.723-4.493.017Zm-1.207,6.914,3.425-5.544c.024-.039.043-.039.067,0l3.446,5.563,6.316,1.535c.066.018.058.038.023.08l-4.2,4.967.474,6.491c0,.062-.008.078-.07.053l-6.037-2.454-5.993,2.446c-.081.033-.1.048-.088-.065l.483-6.475L94,22.51c-.148-.17-.148-.217.056-.269l6.177-1.515ZM74.305,1.584a2.941,2.941,0,0,1,5.207-.022l3.877,6.252L90.47,9.552a3.086,3.086,0,0,1,1.683,4.963L87.4,20.137l.534,7.3a3.083,3.083,0,0,1-4.194,3.1L76.916,27.76,70.09,30.545a3.057,3.057,0,0,1-4.2-3.051l.54-7.357-4.751-5.622a3.079,3.079,0,0,1,1.6-4.942l7.16-1.759,3.863-6.229Zm2.219,1.37L72.114,10.1l-8.208,2.005a.449.449,0,0,0-.233.72l5.455,6.45-.631,8.4a.435.435,0,0,0,.612.444l7.793-3.2,7.822,3.2a.449.449,0,0,0,.613-.461l-.618-8.375,5.441-6.458a.455.455,0,0,0-.241-.72L81.7,10.094,77.294,2.932a.421.421,0,0,0-.77.022ZM50.19,15.2l3.437,5.539c2.111.471,4.211,1.023,6.312,1.539.055.015.063.033.023.08l-4.2,4.963.466,6.386c.006.14-.038.168-.174.117L50.14,31.411l-5.993,2.45c-.088.036-.1.028-.1-.066l.472-6.443c-1.346-1.677-2.77-3.3-4.158-4.944-.08-.092-.068-.116.039-.141l6.249-1.515L50.1,15.2C50.132,15.147,50.155,15.146,50.19,15.2Z" transform="translate(-37.685 0)" fill="#e68c06"/>
</svg>
