<svg xmlns="http://www.w3.org/2000/svg" width="41.761" height="41.761" viewBox="0 0 41.761 41.761">
  <g id="_7156620_facebook_social_media_icon" data-name="7156620_facebook_social_media_icon" transform="translate(0.15 0.15)">
    <path id="Path_679" data-name="Path 679" d="M28.046,11.705a4.82,4.82,0,0,0-3.669,1.187,3.633,3.633,0,0,0-1,2.553v4.334a.689.689,0,0,0,.689.7h2.588a1.448,1.448,0,0,1,1.425,1.7v.095a1.46,1.46,0,0,1-1.437,1.187h-2.6a.689.689,0,0,0-.689.689V36.519a1.46,1.46,0,0,1-1.484,1.46h-.356a1.46,1.46,0,0,1-1.425-1.46V24.065a.677.677,0,0,0-.689-.689H16.839a1.448,1.448,0,0,1-1.448-1.354h0a1.437,1.437,0,0,1,1.448-1.448h2.624a.689.689,0,0,0,.689-.7V14.709a5.936,5.936,0,0,1,2.125-4.559c1.187-.938,3.36-1.033,5.105-.9A1.46,1.46,0,0,1,28.735,10.7S28.711,11.681,28.046,11.705Z" transform="translate(2.836 1.676)" fill="#b1b1b1" stroke="#b1b1b1" stroke-width="0.8"/>
    <path id="Path_680" data-name="Path 680" d="M30.075,41.211H11.387A11.149,11.149,0,0,1,.25,30.075V11.387A11.149,11.149,0,0,1,11.387.25H30.075A11.149,11.149,0,0,1,41.211,11.387V30.075A11.149,11.149,0,0,1,30.075,41.211ZM11.387,3.218a8.18,8.18,0,0,0-8.169,8.169V30.075a8.18,8.18,0,0,0,8.169,8.169H30.075a8.18,8.18,0,0,0,8.169-8.169V11.387a8.18,8.18,0,0,0-8.169-8.169Z" fill="#b1b1b1" stroke="#b1b1b1" stroke-width="0.8"/>
  </g>
</svg>
